{"glyphs":{":":{"x_min":0,"x_max":141,"ha":141,"o":"m 50 167 b 28 135 57 112 78 124 b 87 127 94 135 98 144 b 101 153 100 164 95 172 b 88 180 70 194 50 167 z m 78 294 b 87 298 94 305 98 315 b 101 324 100 335 95 343 b 88 351 70 365 50 337 b 28 306 57 282 78 294 z"},"$":{"x_min":0,"x_max":334,"ha":334,"o":"m 291 211 b 291 218 290 225 288 232 b 281 259 271 284 256 306 b 234 341 210 371 188 402 l 194 706 b 209 703 223 696 233 684 b 245 664 250 641 246 619 b 243 595 236 572 224 552 l 224 551 b 223 548 224 545 227 543 b 229 542 233 542 235 545 b 249 567 258 591 262 617 b 268 644 263 672 250 695 b 237 714 217 726 195 730 l 196 789 b 196 799 188 808 178 808 b 168 808 160 800 160 790 l 158 729 b 136 725 116 714 100 697 b 82 676 69 651 64 623 b 58 597 58 569 63 542 b 74 490 97 442 129 400 b 136 390 143 381 150 371 l 144 90 b 123 92 104 102 90 117 b 74 135 62 156 54 178 l 54 179 b 53 182 49 184 46 182 b 43 181 41 178 42 174 b 49 149 61 126 77 106 b 93 84 117 70 144 66 l 142 5 b 142 -5 150 -13 160 -13 b 170 -13 179 -6 179 5 l 180 68 b 196 71 212 77 225 86 b 249 101 268 122 280 148 b 283 154 285 161 287 168 b 289 175 290 182 291 189 b 292 196 292 204 291 211 z m 152 451 b 131 482 115 515 104 551 b 92 594 98 640 123 677 b 132 689 144 698 158 702 z m 248 161 b 236 131 212 106 181 95 l 186 325 b 197 311 208 296 218 282 b 245 243 264 202 248 161 z"},"?":{"x_min":0,"x_max":349,"ha":349,"o":"m 133 72 b 111 39 133 9 161 29 b 177 40 184 60 178 78 b 178 78 155 106 133 72 z m 306 605 b 304 627 297 649 286 669 b 275 688 261 705 243 719 b 224 732 201 739 178 739 b 156 738 135 731 116 719 b 79 697 54 660 45 618 b 35 575 50 530 84 503 b 86 501 90 502 92 505 b 94 507 93 511 91 513 l 90 513 b 76 525 65 541 61 559 b 56 577 56 596 61 614 b 70 651 94 682 127 700 b 143 710 161 714 179 714 b 196 713 212 707 225 696 b 239 684 249 670 256 653 b 263 637 266 620 266 602 b 265 565 258 528 245 493 b 232 457 218 421 203 384 b 189 347 175 309 163 270 b 151 230 145 189 148 147 b 149 144 151 142 154 142 b 157 142 160 144 160 147 b 169 185 181 222 198 257 l 247 365 b 263 402 278 440 290 479 b 304 520 309 562 306 605 z"},"<":{"x_min":0,"x_max":381,"ha":381,"o":"m 99 280 l 338 555 b 340 557 339 561 337 563 b 334 565 331 565 328 562 l 48 292 l 48 292 l 47 290 b 43 285 41 279 42 273 b 43 267 46 262 51 258 l 329 3 b 332 1 335 1 338 3 b 339 5 339 6 339 8 b 339 9 338 11 337 12 z"},"'":{"x_min":0,"x_max":137,"ha":137,"o":"m 91 816 b 88 822 85 827 81 832 b 76 837 71 842 65 845 b 62 846 59 847 55 846 b 49 844 44 839 43 833 b 41 827 42 820 47 815 b 50 811 53 806 55 801 b 58 796 59 790 59 784 b 60 777 59 770 57 763 b 54 755 49 748 44 742 l 43 742 b 42 740 42 738 43 737 b 44 735 45 734 47 734 b 58 736 69 741 77 749 b 85 757 91 768 93 779 b 96 791 95 804 91 816 z"},"=":{"x_min":0,"x_max":413,"ha":413,"o":"m 60 283 l 353 283 b 363 283 371 291 371 302 b 371 312 363 320 353 320 l 60 320 b 50 320 42 311 42 301 b 42 291 50 283 60 283 z m 353 258 l 60 258 b 50 258 42 250 42 240 b 42 230 50 222 60 222 l 353 222 b 363 222 371 230 371 240 b 371 250 363 258 353 258 z"},"a":{"x_min":0,"x_max":393,"ha":393,"o":"m 444 167 b 442 168 441 168 439 167 b 438 166 437 165 436 163 b 427 124 410 86 388 52 b 377 37 361 23 348 25 b 337 27 327 43 323 60 b 319 78 317 97 318 116 b 317 135 318 155 318 175 l 321 294 l 321 294 b 321 307 311 319 298 320 b 285 321 273 311 272 298 b 272 295 272 292 271 289 b 261 299 248 306 234 310 b 200 321 164 319 132 304 b 100 288 75 262 59 229 b 43 197 38 161 43 126 b 45 108 51 91 58 76 b 66 59 76 44 89 32 b 95 25 103 20 111 15 b 115 12 119 10 123 8 l 136 5 b 153 0 172 -1 189 4 b 206 9 221 18 234 30 b 246 41 256 54 264 68 b 269 77 274 86 278 95 b 281 79 286 64 292 48 b 297 38 303 27 311 18 b 320 8 333 2 347 1 b 360 1 373 7 382 16 b 390 23 397 32 403 41 b 424 79 439 119 448 160 b 449 163 447 167 444 167 z m 251 77 b 236 52 212 34 184 27 b 171 24 157 26 145 31 b 132 36 122 44 115 55 b 100 78 92 104 90 132 b 88 159 91 186 101 211 b 110 237 126 260 148 276 b 171 291 200 297 228 290 b 244 287 258 279 269 268 b 267 236 267 205 268 174 b 269 156 271 137 273 119 b 267 105 260 90 251 77 z"},"L":{"x_min":0,"x_max":594,"ha":594,"o":"m 638 165 b 637 166 635 165 633 165 b 632 164 631 163 630 161 l 630 161 b 619 125 597 93 566 70 b 534 51 495 50 462 67 b 394 92 330 133 257 162 b 290 298 302 438 293 577 b 291 617 289 657 284 697 b 281 738 274 779 261 818 b 254 840 240 859 222 873 b 202 887 175 889 153 878 b 113 858 91 813 99 769 b 99 765 103 763 106 764 b 109 764 112 767 111 770 b 108 807 128 842 162 857 b 177 863 194 861 207 851 b 219 840 228 825 233 808 b 241 771 246 733 246 694 b 248 655 248 616 248 576 b 249 498 246 419 241 341 b 239 285 233 229 225 173 b 212 178 198 181 185 184 b 162 188 138 188 116 183 b 91 176 70 161 56 140 b 41 119 38 91 46 67 b 55 45 70 26 90 13 b 109 0 134 -4 157 2 b 179 9 198 24 210 43 b 221 61 231 80 238 100 b 240 105 242 111 244 117 b 312 94 380 60 454 39 b 474 33 496 30 517 31 b 539 32 560 40 578 53 b 610 80 633 117 642 158 b 643 161 641 164 638 165 z m 150 25 b 134 21 117 25 104 35 b 91 45 82 59 78 76 b 75 90 79 105 89 115 b 99 126 112 133 127 136 b 157 140 187 137 215 127 b 213 121 212 115 210 109 b 199 73 182 35 150 25 z"},"3":{"x_min":0,"x_max":381,"ha":381,"o":"m 366 186 b 358 219 339 249 314 271 b 295 288 273 303 250 314 b 303 358 341 417 361 482 b 372 521 370 562 355 600 b 352 609 347 618 341 626 b 336 635 331 643 324 650 l 303 670 b 296 677 287 682 279 687 b 246 708 205 714 167 704 b 131 693 99 670 78 639 b 56 609 44 573 42 536 b 41 500 48 464 62 431 b 64 428 67 426 70 428 b 73 429 75 432 74 435 l 74 436 b 60 467 54 501 56 535 b 58 569 71 602 92 629 b 112 655 140 674 173 682 b 204 689 237 681 261 661 b 267 655 273 650 278 644 l 292 625 b 297 619 301 612 304 605 b 308 598 310 591 312 584 b 322 555 322 523 315 494 b 295 430 263 370 220 319 l 218 317 b 216 314 215 310 216 307 b 217 304 219 301 223 300 b 267 266 310 223 319 176 b 325 125 300 76 256 50 b 234 35 207 27 179 27 b 152 27 125 38 105 56 b 64 93 66 166 101 209 l 101 209 b 103 212 103 215 100 217 b 98 220 94 219 92 217 b 72 192 61 162 60 130 b 59 98 70 67 93 44 b 115 20 146 6 178 3 b 210 1 243 7 272 20 b 303 34 329 56 348 84 b 367 114 373 151 366 186 z"},";":{"x_min":0,"x_max":158,"ha":158,"o":"m 94 294 b 103 298 110 305 113 315 b 117 324 116 335 111 343 b 104 351 86 365 66 337 b 43 306 73 282 94 294 z m 102 178 b 100 180 97 182 93 183 b 87 183 81 180 77 175 b 73 170 72 163 74 157 b 76 152 77 146 77 141 b 78 135 77 129 75 123 b 73 116 69 110 65 105 b 59 99 53 94 45 90 l 45 90 b 43 89 42 88 42 87 b 42 85 43 82 45 81 b 56 79 68 80 78 84 b 89 89 98 97 105 107 b 112 117 116 129 116 142 b 115 148 114 155 112 161 b 110 167 107 173 102 178 z"},"J":{"x_min":0,"x_max":357,"ha":357,"o":"m 371 826 l 371 839 l 371 844 b 370 847 370 850 369 854 b 367 860 363 866 358 870 b 348 879 335 882 323 878 b 320 878 317 876 314 875 l 310 872 l 309 872 l 305 868 b 290 860 275 852 259 847 b 242 840 225 835 207 830 b 188 826 170 820 152 813 b 113 800 80 774 58 740 b 39 704 36 662 52 624 b 53 621 57 620 60 621 b 63 622 64 625 63 628 l 63 629 b 52 662 56 699 75 729 b 97 757 127 776 161 784 b 179 788 197 791 215 794 b 234 797 253 800 272 805 b 289 810 306 817 322 825 b 323 674 333 526 327 377 b 326 304 319 230 305 158 b 301 141 296 123 290 107 b 284 91 275 76 264 63 b 242 37 210 22 176 23 b 141 26 111 46 93 75 b 73 105 64 140 65 175 b 67 210 81 244 105 270 b 128 295 165 310 192 296 l 193 296 b 197 294 201 294 205 296 b 209 299 211 303 211 308 b 210 312 207 316 203 318 l 203 318 b 183 327 160 327 139 319 b 120 312 103 300 89 284 b 62 255 46 216 44 176 b 42 136 53 97 74 63 b 95 27 132 3 174 -1 b 216 -4 257 13 285 43 b 299 58 311 75 319 94 b 327 112 334 131 339 149 b 358 223 370 299 374 375 b 382 525 381 676 371 826 z m 337 833 l 337 833 l 338 834 b 338 834 337 833 337 833 z"},"V":{"x_min":0,"x_max":568,"ha":568,"o":"m 693 477 l 693 477 b 670 468 645 465 621 470 b 615 471 609 473 604 475 b 611 504 618 533 624 562 b 636 613 643 665 647 717 b 649 744 649 770 646 797 b 644 826 631 853 609 873 b 597 884 580 889 564 886 b 548 883 535 875 525 863 b 507 842 494 817 486 791 b 468 740 464 686 474 633 b 483 579 508 530 546 492 b 556 483 567 475 578 469 b 561 402 540 336 516 271 b 499 223 478 176 455 130 b 443 108 430 87 414 67 b 401 48 382 34 360 27 b 338 25 317 35 305 53 b 290 73 277 94 268 117 b 249 163 233 212 222 261 b 172 459 145 664 114 868 b 112 881 100 890 87 889 b 74 887 64 875 66 862 l 66 861 b 78 759 92 656 110 554 b 127 451 150 349 180 249 b 196 199 216 150 239 103 b 252 78 267 56 285 35 b 294 24 306 15 319 8 b 333 1 349 -1 365 2 b 392 11 416 28 433 52 b 449 73 463 96 475 120 b 498 166 519 214 537 263 b 561 328 582 393 600 460 b 606 458 612 456 618 455 b 645 451 673 455 698 466 b 701 468 702 471 701 474 b 700 477 696 479 693 478 z m 558 504 b 523 540 501 586 494 636 b 485 685 489 736 506 783 b 514 806 526 828 542 846 b 547 855 556 861 566 862 b 576 863 586 861 594 854 b 611 838 621 816 622 793 b 625 768 625 743 623 718 b 620 667 612 617 602 567 b 596 539 589 512 583 485 b 574 491 565 497 558 504 z"},"\"":{"x_min":0,"x_max":211,"ha":211,"o":"m 81 832 b 76 837 71 841 65 845 b 62 846 59 847 55 846 b 49 844 44 839 43 833 b 41 826 42 820 47 815 b 50 810 53 806 55 801 b 58 795 59 790 59 783 b 60 776 59 770 57 763 b 54 755 49 748 44 742 l 43 742 b 42 740 42 738 43 737 b 44 735 45 734 47 734 b 58 736 69 741 77 749 b 85 757 91 768 93 779 b 96 791 95 804 91 816 b 88 822 85 827 81 832 z m 165 816 b 163 822 159 827 155 832 b 151 837 145 841 139 844 b 136 846 133 847 129 846 b 123 844 119 839 117 833 b 115 826 117 820 121 815 b 124 810 127 806 130 801 b 132 795 134 789 134 783 b 134 776 133 769 131 763 b 128 755 124 748 118 742 l 118 741 b 116 740 116 738 117 736 b 118 735 120 734 122 734 b 133 736 143 741 151 749 b 159 757 165 768 168 779 b 170 791 170 804 165 816 z"},"7":{"x_min":0,"x_max":369,"ha":369,"o":"m 392 711 l 48 704 b 45 704 42 702 42 698 b 42 695 45 692 48 692 l 369 687 b 304 589 246 486 195 379 b 168 323 144 264 125 204 b 104 143 92 79 90 14 b 90 1 100 -10 114 -11 b 127 -11 138 -1 139 13 l 139 13 b 143 73 155 132 174 188 b 192 247 213 304 238 360 b 261 417 288 472 316 528 b 343 583 372 638 402 692 l 402 692 b 404 696 404 701 402 704 b 400 708 396 710 392 710 z"},"S":{"x_min":0,"x_max":418,"ha":418,"o":"m 408 651 l 408 651 b 406 648 407 644 410 643 b 413 641 417 643 419 646 b 428 663 435 682 438 702 b 442 722 441 743 435 763 b 424 802 397 836 361 857 b 326 878 285 888 244 886 b 202 884 161 868 130 840 b 99 812 77 775 66 735 b 53 695 49 653 54 612 b 60 569 78 529 105 496 b 132 466 162 438 195 415 b 227 391 260 371 290 349 b 320 329 346 303 367 275 b 385 246 393 211 388 177 b 385 142 371 108 348 82 b 297 28 219 10 150 35 b 115 47 86 72 70 104 b 55 138 52 177 62 212 b 63 216 61 219 58 220 b 54 221 51 219 50 216 b 38 177 39 135 54 97 b 72 59 103 30 142 15 b 221 -17 311 1 372 60 b 401 90 420 130 425 172 b 433 215 425 259 404 297 b 381 332 352 363 318 386 b 286 410 254 432 223 454 b 162 497 108 549 96 618 b 90 654 92 690 101 725 b 108 760 126 792 151 818 b 176 843 210 858 245 861 b 282 864 318 856 351 839 b 383 822 408 793 420 758 b 425 741 426 722 424 704 b 421 686 416 668 408 651 z"},"}":{"x_min":0,"x_max":436,"ha":436,"o":"m 386 402 l 382 403 b 351 412 322 427 297 447 b 275 466 260 492 257 522 b 251 582 273 649 276 721 b 278 759 271 797 254 831 b 244 848 232 863 217 876 b 203 889 185 898 166 903 b 147 907 126 904 108 894 b 92 884 78 871 68 855 b 58 840 50 824 46 806 b 40 788 41 769 47 751 b 48 748 51 747 54 748 b 57 749 59 752 58 755 l 58 755 b 54 771 55 787 60 802 b 65 817 73 832 83 845 b 99 871 130 884 160 878 b 174 873 187 865 197 853 b 207 843 216 830 221 815 b 232 786 235 755 230 724 b 227 692 220 659 216 624 b 209 588 208 551 213 515 b 219 475 241 440 274 417 b 292 404 313 395 334 389 b 290 368 255 331 235 286 b 223 257 216 226 213 195 b 212 180 212 163 212 149 b 212 136 212 122 211 108 b 210 80 206 53 201 26 b 196 0 186 -25 171 -47 b 164 -57 155 -65 144 -69 b 133 -72 121 -70 113 -63 b 92 -45 77 -21 68 5 l 68 5 b 67 8 63 9 60 8 b 57 7 56 4 57 1 b 64 -29 79 -57 100 -79 b 114 -91 132 -96 150 -93 b 167 -89 182 -80 194 -67 b 214 -43 230 -15 240 15 b 250 44 256 74 259 104 b 261 119 261 135 261 150 b 260 165 260 178 261 191 b 263 218 268 244 277 269 b 286 294 300 316 317 335 b 335 355 358 370 382 379 b 388 379 393 383 394 389 b 394 395 391 400 386 402 z"},"Z":{"x_min":0,"x_max":576,"ha":576,"o":"m 628 165 b 625 166 622 165 621 161 b 609 127 594 94 574 64 b 564 50 551 38 536 31 b 519 26 502 23 485 24 b 414 27 346 56 277 80 b 268 83 258 86 249 89 b 292 138 328 192 358 250 b 393 316 425 383 454 451 b 513 587 564 727 608 868 b 612 879 607 891 597 897 b 587 902 575 900 567 892 l 567 891 b 552 876 533 867 513 864 b 489 861 465 860 441 863 b 391 868 340 880 286 886 b 259 890 231 892 204 890 b 174 890 145 877 124 855 b 114 843 108 829 105 814 b 102 800 103 785 109 771 b 119 745 136 722 159 705 b 161 703 165 704 167 706 b 169 709 169 712 167 715 l 166 715 b 147 731 133 752 125 776 b 119 798 125 823 141 839 b 159 854 182 861 205 859 b 230 858 255 854 280 848 b 331 834 383 822 435 813 b 464 809 493 809 522 813 b 528 815 533 816 539 818 b 498 701 454 586 406 472 b 354 342 289 218 212 101 b 198 105 184 109 169 112 b 149 116 129 118 108 117 b 83 116 60 103 47 81 b 41 69 40 55 44 42 b 48 30 56 20 66 13 b 85 1 107 -3 129 2 b 161 11 189 27 212 50 b 229 46 246 41 263 36 b 299 26 335 17 372 10 b 409 3 448 -1 486 1 b 505 2 525 7 543 15 b 561 24 576 38 586 55 b 606 87 622 122 632 158 b 633 161 632 164 628 165 z m 124 26 b 109 22 94 25 82 34 b 77 37 74 42 73 48 b 72 54 73 60 76 64 b 85 73 97 77 110 75 b 126 73 142 70 158 65 b 165 63 172 62 179 60 b 164 44 145 32 124 26 z"},"x":{"x_min":0,"x_max":280,"ha":280,"o":"m 340 169 b 337 170 334 168 333 165 b 323 122 302 83 271 53 b 257 39 238 31 219 30 b 201 34 185 46 176 62 b 161 88 149 117 141 146 b 146 152 150 158 154 164 b 191 213 229 260 268 307 b 270 308 270 311 269 313 b 269 315 267 316 265 317 b 262 317 260 316 259 315 b 220 268 181 220 144 172 b 142 168 140 165 137 161 b 135 167 134 174 132 180 b 122 221 115 265 108 307 l 108 308 b 105 321 94 330 81 328 b 68 327 58 315 59 302 b 63 256 71 211 85 167 b 90 149 97 132 104 116 b 100 110 95 104 91 97 b 73 72 57 46 42 19 b 40 16 41 13 44 11 b 47 10 51 11 53 14 b 67 40 83 66 101 91 b 104 95 107 99 110 103 b 120 81 134 60 151 41 b 159 32 169 24 179 17 b 191 9 205 5 219 5 b 244 7 268 20 284 39 b 315 74 336 116 345 162 b 345 164 345 165 344 167 b 343 168 342 169 340 169 z"},")":{"x_min":0,"x_max":336,"ha":336,"o":"m 242 685 b 224 730 198 773 167 810 b 151 829 133 845 114 860 b 95 876 73 888 50 896 b 47 897 44 895 43 893 b 41 890 43 886 45 885 l 46 884 b 85 861 119 830 144 792 b 170 754 190 714 204 671 b 232 583 246 492 246 401 b 247 355 244 309 239 263 b 238 240 232 218 229 196 b 227 185 223 174 221 163 b 218 152 215 141 211 130 b 198 87 177 47 150 11 b 124 -26 88 -55 47 -73 l 46 -73 b 43 -74 41 -77 42 -80 b 43 -83 46 -85 49 -85 b 74 -80 97 -70 117 -56 b 127 -49 137 -42 147 -34 b 156 -26 165 -18 174 -9 b 207 28 233 70 250 116 b 283 208 298 304 294 401 b 294 498 277 595 242 685 z"},"&":{"x_min":0,"x_max":521,"ha":521,"o":"m 582 262 l 582 263 b 581 269 575 274 568 273 b 562 273 557 267 557 260 b 565 214 550 166 517 133 b 488 107 449 97 411 106 b 414 115 417 124 419 133 b 422 146 423 159 422 173 b 422 188 415 203 402 212 b 387 221 368 219 356 207 b 345 196 338 182 339 166 b 339 152 343 138 350 126 b 358 114 368 104 381 97 b 382 96 384 96 385 95 b 382 86 378 78 374 70 b 354 26 321 -10 279 -32 b 237 -52 187 -45 153 -14 b 121 18 100 59 94 103 b 86 148 90 194 106 237 b 122 279 152 316 190 341 b 196 345 203 349 209 352 b 225 343 243 337 261 334 b 274 331 287 330 301 331 b 315 331 329 334 342 338 b 349 341 356 346 362 352 b 365 356 368 361 369 366 b 370 372 369 378 366 384 b 361 392 354 398 345 401 b 339 404 332 406 325 407 b 284 412 244 406 207 389 b 190 405 176 423 166 444 b 146 485 137 530 140 575 b 141 620 159 663 189 697 b 204 713 224 723 245 727 b 267 730 288 722 302 705 b 315 687 319 664 312 643 b 305 621 287 604 265 596 l 265 596 b 262 595 260 592 261 588 b 262 585 266 584 269 585 b 295 593 317 612 327 637 b 337 664 334 693 318 717 b 301 741 273 754 244 752 b 216 750 189 739 167 721 b 125 685 98 634 92 579 b 87 524 100 469 131 424 b 143 405 158 388 176 374 b 174 373 173 373 171 372 b 124 344 87 303 65 254 b 43 204 37 148 46 95 b 56 40 87 -9 134 -40 b 180 -71 239 -76 289 -53 b 336 -28 372 12 393 61 b 397 70 401 79 405 88 b 449 75 497 86 532 117 b 552 135 567 158 574 184 b 581 210 584 236 582 262 z m 253 372 b 274 379 297 382 320 380 b 329 379 337 376 344 371 b 344 371 345 372 343 369 b 340 366 336 363 332 362 b 322 358 311 356 300 355 b 288 355 277 356 266 358 b 257 360 249 363 241 367 b 245 368 249 370 253 372 z m 390 114 b 381 119 373 127 368 136 b 362 145 359 156 358 166 b 358 176 362 186 369 192 b 375 199 384 200 392 196 b 399 190 403 181 403 171 b 404 160 402 148 400 137 b 398 129 395 121 392 113 b 392 114 391 114 390 114 z"},"_":{"x_min":0,"x_max":501,"ha":501,"o":"m 441 41 l 60 40 b 50 40 42 32 42 22 b 42 12 50 4 60 4 l 441 4 b 451 4 459 12 459 22 b 459 32 451 41 441 41 z"},"v":{"x_min":0,"x_max":273,"ha":273,"o":"m 319 165 b 316 166 313 164 312 161 b 309 142 298 125 283 114 b 268 105 248 105 233 115 b 229 117 226 120 222 123 b 227 137 231 150 235 163 b 240 183 246 204 250 224 b 252 235 253 245 254 256 b 255 262 255 267 255 273 b 255 280 254 286 251 293 b 248 300 243 306 236 310 b 229 314 219 315 211 312 b 199 306 189 295 185 282 b 171 240 170 195 184 153 b 187 142 192 132 199 123 b 192 100 182 77 170 56 b 161 40 146 24 134 25 b 128 25 122 29 118 35 b 113 43 109 51 106 60 b 86 138 71 217 59 296 l 59 297 b 57 310 45 319 32 317 b 19 315 10 304 11 291 b 14 249 21 207 32 166 b 41 124 57 84 78 46 b 84 36 91 27 98 18 b 107 7 120 1 135 0 b 148 1 161 7 170 17 b 178 26 184 35 190 45 b 200 64 209 84 217 105 b 219 103 222 101 224 100 b 245 87 272 87 292 101 b 310 115 321 136 324 158 b 325 162 323 165 319 165 z m 212 169 b 210 162 208 155 206 148 b 205 152 203 155 202 159 b 191 197 193 237 207 273 b 210 281 215 289 219 290 b 222 291 226 289 229 283 b 230 280 231 276 231 273 b 231 268 230 263 230 258 b 229 249 227 239 226 229 b 222 209 217 189 212 169 z"},"O":{"x_min":0,"x_max":521,"ha":521,"o":"m 639 392 b 604 383 568 377 533 373 b 533 393 534 413 533 433 b 531 493 523 553 508 612 b 494 670 472 727 443 780 b 429 807 410 832 388 854 b 377 865 363 874 348 881 b 316 896 278 889 254 863 b 243 851 233 839 226 825 b 211 798 201 769 195 739 b 182 680 184 619 199 560 b 213 501 248 448 296 411 b 346 377 405 358 466 358 b 472 358 478 358 483 358 b 481 326 477 294 471 262 b 462 207 442 154 413 105 b 399 82 381 61 358 45 b 336 30 309 24 282 26 b 255 29 229 40 208 57 b 187 74 169 95 155 119 b 129 169 111 223 103 278 b 93 334 88 391 88 449 b 87 506 92 563 102 620 b 111 676 131 731 160 780 b 162 783 161 787 158 789 b 156 791 152 790 150 788 b 111 741 84 686 69 627 b 53 569 44 509 42 449 b 40 389 45 328 56 269 b 62 239 71 210 82 182 b 93 153 107 125 125 100 b 160 46 216 10 280 2 b 312 -1 344 6 372 23 b 399 39 422 61 440 87 b 477 136 503 193 516 253 b 525 288 530 324 532 361 b 569 364 606 371 642 381 b 645 381 647 385 646 388 b 645 391 642 393 639 392 z m 466 371 b 409 371 353 390 306 423 b 260 459 229 509 216 565 b 203 620 203 679 216 735 b 222 762 232 789 245 813 b 257 837 277 855 302 863 b 328 865 353 854 369 834 b 388 814 404 791 416 765 b 462 660 486 547 486 432 b 486 412 485 391 484 371 b 478 371 472 371 466 371 z"},"(":{"x_min":0,"x_max":336,"ha":336,"o":"m 291 885 b 294 886 295 890 294 893 b 293 895 289 897 287 896 b 263 888 242 876 223 860 b 203 845 185 829 170 810 b 138 773 113 730 95 685 b 60 594 42 498 43 401 b 39 304 54 208 87 116 b 104 70 130 28 163 -9 b 171 -18 181 -26 190 -34 b 199 -42 209 -49 220 -56 b 240 -70 263 -80 287 -85 b 290 -85 293 -83 294 -80 b 295 -77 294 -74 291 -73 l 290 -73 b 248 -55 212 -26 186 11 b 159 47 139 87 125 130 b 121 141 118 152 116 163 b 113 174 110 185 108 196 b 104 218 99 240 97 263 b 92 309 90 355 91 401 b 90 492 104 583 132 671 b 147 714 167 754 193 792 b 218 830 251 861 291 884 z"},"C":{"x_min":0,"x_max":439,"ha":439,"o":"m 491 167 b 488 168 484 166 483 163 b 473 133 457 104 436 80 b 417 56 390 39 359 31 b 330 24 298 28 271 41 b 243 54 218 73 199 97 b 160 147 132 204 116 265 b 98 326 90 390 90 453 b 90 517 99 580 118 641 b 135 702 164 758 205 807 b 224 830 250 848 279 857 b 308 866 339 862 364 845 b 389 827 404 799 405 769 b 405 753 403 738 397 724 b 391 709 383 695 373 683 l 373 683 b 371 680 371 677 374 675 b 376 673 380 673 382 675 b 394 688 403 702 410 718 b 418 734 421 751 422 769 b 422 806 405 840 376 862 b 346 884 308 892 272 883 b 238 874 207 855 182 830 b 157 805 136 777 120 747 b 103 718 88 686 77 654 b 54 590 42 522 42 454 b 41 385 51 317 73 252 b 93 186 128 126 174 75 b 198 49 227 28 260 15 b 293 2 330 0 365 10 b 398 20 428 41 449 69 b 470 96 485 126 494 159 b 495 162 494 165 491 167 z"},"W":{"x_min":0,"x_max":808,"ha":808,"o":"m 905 477 l 905 477 b 884 469 861 466 839 469 b 845 505 850 541 854 578 b 860 629 863 680 862 731 b 862 757 860 783 856 809 b 852 838 835 864 811 880 b 796 888 779 889 763 882 b 750 876 739 867 730 855 b 714 833 703 809 695 783 b 679 733 676 679 687 627 b 696 575 722 527 760 490 b 775 476 794 465 814 459 b 804 400 792 340 778 282 b 766 233 751 185 733 138 b 725 115 714 92 702 71 b 692 50 675 35 654 27 b 633 24 612 34 602 53 b 595 62 589 72 584 83 l 571 118 b 556 165 544 214 535 263 b 526 312 518 362 510 411 b 503 461 497 511 493 561 b 488 611 484 662 481 712 b 478 762 475 812 477 862 l 477 862 b 477 876 467 887 453 887 b 440 888 429 877 428 864 b 426 828 427 793 427 758 b 428 717 429 676 429 636 b 431 561 431 485 430 410 b 430 335 426 261 418 186 b 414 150 405 114 391 80 b 378 48 349 19 319 25 b 304 28 290 37 280 50 b 269 64 260 79 253 95 b 239 129 228 164 220 200 b 202 272 188 345 176 419 b 152 567 136 716 127 865 l 127 865 b 127 879 116 889 102 889 b 89 888 78 877 79 864 b 80 787 85 711 94 636 b 102 560 113 485 126 410 b 139 335 157 261 181 188 b 193 152 208 116 225 81 b 235 63 246 47 260 32 b 274 15 294 4 316 0 b 338 -3 361 5 377 20 b 393 34 405 51 412 70 b 426 106 436 144 440 183 b 450 258 455 334 454 410 b 454 424 454 438 454 452 b 463 385 475 318 491 253 b 504 203 521 154 541 106 b 552 81 565 58 581 36 b 590 25 601 16 614 9 b 628 2 644 0 660 3 b 687 13 709 33 722 59 b 735 82 746 105 754 130 b 772 178 787 227 799 277 b 814 335 826 395 836 454 b 861 452 886 456 909 466 b 912 467 914 471 913 474 b 911 477 908 478 905 477 z m 772 502 b 737 537 714 582 706 631 b 697 679 700 729 716 776 b 723 799 734 821 748 840 b 763 859 782 869 799 859 b 837 837 837 779 839 731 b 839 680 836 630 831 580 b 827 545 822 509 816 474 b 800 480 784 490 772 502 z"},"A":{"x_min":0,"x_max":618,"ha":618,"o":"m 686 167 b 685 168 683 168 682 167 b 680 167 679 165 678 164 b 664 122 642 82 613 48 b 602 33 582 25 563 27 b 545 35 530 49 522 67 b 495 116 477 170 470 226 b 487 225 504 226 521 227 b 543 228 563 237 578 253 b 580 255 579 259 577 261 b 574 263 570 263 568 260 l 568 260 b 555 247 538 240 519 239 b 502 238 485 237 467 238 b 463 266 459 295 456 323 b 444 413 438 504 433 595 b 430 641 428 686 426 732 l 420 869 l 420 870 b 420 876 415 881 409 881 b 403 882 397 877 396 871 b 362 719 326 566 279 418 b 263 367 245 316 225 266 b 187 271 148 273 110 273 b 69 274 29 267 -9 253 b -28 245 -46 232 -59 216 b -72 198 -81 178 -83 157 b -86 136 -86 115 -82 95 b -78 73 -68 53 -53 37 b -21 7 25 -5 68 7 b 79 9 89 13 99 18 b 104 21 109 24 113 27 l 125 37 b 141 50 156 65 169 81 b 195 112 217 146 236 182 b 247 204 258 226 268 248 b 293 245 318 242 344 238 b 370 235 397 232 424 230 b 428 213 432 196 437 180 b 450 133 470 90 497 50 b 511 27 532 10 558 3 b 572 0 586 2 599 9 b 610 15 620 24 629 33 b 644 52 657 72 666 94 b 675 116 683 138 690 160 b 691 163 689 166 686 167 z m 198 201 b 183 166 164 133 143 102 b 132 86 120 72 106 59 b 100 53 93 48 85 43 b 78 39 70 36 61 33 b 28 22 -10 30 -36 54 b -60 82 -70 118 -63 154 b -61 172 -55 189 -44 204 b -33 218 -18 230 -2 237 b 34 251 72 258 110 258 b 147 258 184 256 220 253 b 213 235 206 218 198 201 z m 345 251 b 321 254 297 258 273 261 b 293 308 310 355 325 404 b 348 480 368 556 383 634 b 385 643 387 652 389 661 b 389 639 389 616 389 594 b 390 501 396 409 408 317 b 411 292 416 267 421 242 b 396 245 371 248 345 251 z"},"f":{"x_min":0,"x_max":219,"ha":219,"o":"m 267 162 b 266 162 264 162 263 161 b 261 160 260 159 260 157 l 260 157 b 253 115 230 77 197 51 b 166 29 127 18 89 21 b 90 78 91 134 93 190 b 165 295 200 421 194 548 b 194 566 189 584 180 600 b 174 610 163 617 152 619 b 140 619 129 615 120 607 b 96 581 81 548 78 512 b 66 447 58 382 53 317 b 43 187 39 56 42 -74 b 43 -139 46 -205 50 -270 b 52 -303 55 -335 59 -368 b 62 -386 67 -404 76 -420 b 81 -429 88 -437 96 -442 b 107 -449 120 -450 131 -446 b 143 -441 153 -432 160 -421 b 166 -412 172 -402 176 -391 b 183 -371 189 -350 192 -329 b 196 -308 198 -287 199 -266 b 200 -245 200 -224 199 -203 b 196 -160 186 -118 167 -79 b 158 -59 146 -41 133 -24 b 127 -16 120 -9 113 -2 b 148 0 182 13 210 34 b 228 49 243 68 253 89 b 262 110 269 132 272 155 b 272 158 270 161 267 162 z m 107 507 b 109 522 112 538 116 552 b 120 566 127 578 137 589 b 147 597 153 597 160 587 b 167 574 171 560 172 546 b 179 436 152 327 94 233 b 94 260 95 287 95 314 b 96 379 100 443 107 507 z m 145 -90 b 162 -126 172 -165 174 -204 b 176 -245 173 -285 167 -325 b 164 -344 159 -364 152 -382 b 148 -399 138 -413 123 -423 b 119 -424 115 -423 112 -420 b 107 -416 104 -412 101 -406 b 96 -393 92 -379 92 -364 b 89 -333 89 -301 88 -268 b 87 -204 88 -139 88 -74 b 88 -54 88 -33 89 -12 b 98 -20 107 -29 114 -39 b 126 -55 136 -72 145 -90 z"},"Q":{"x_min":0,"x_max":551,"ha":551,"o":"m 603 25 b 539 31 478 52 424 85 b 433 96 442 108 450 121 b 478 164 498 212 510 262 b 532 362 524 467 487 564 b 470 611 445 657 414 697 b 399 718 381 736 362 753 b 343 770 321 783 297 793 b 294 794 291 792 289 790 b 288 787 289 783 291 782 b 331 755 364 720 387 678 b 412 638 431 595 445 549 b 474 459 481 364 466 270 b 458 224 443 179 420 138 b 414 125 406 113 398 102 b 346 136 301 178 262 226 b 258 231 251 231 246 227 b 241 224 239 217 243 211 b 282 161 330 117 383 82 b 382 81 382 80 381 79 b 367 61 349 47 328 38 b 286 20 237 22 196 43 b 154 63 118 96 93 135 b 68 175 49 219 38 265 b 27 311 20 358 18 405 b 11 500 26 595 61 683 b 79 727 104 767 136 801 b 165 836 208 857 253 859 b 300 858 345 841 381 812 b 401 798 418 782 434 764 b 442 755 450 746 457 736 b 464 728 469 717 473 707 l 473 706 b 474 703 477 701 480 701 b 483 702 485 705 485 708 b 482 721 477 734 469 745 b 463 755 456 766 448 776 b 432 795 414 813 395 829 b 356 864 306 885 253 888 b 226 889 200 883 175 872 b 151 860 130 845 111 826 b 92 808 76 788 61 767 b 47 746 34 723 23 700 b -17 606 -36 505 -30 403 b -26 300 8 201 67 117 b 98 75 138 42 185 20 b 233 -3 289 -5 338 14 b 363 24 385 40 402 60 b 404 62 406 64 407 66 b 466 29 532 7 601 1 l 602 1 b 609 1 615 6 615 13 b 615 19 610 25 603 25 z"},"w":{"x_min":0,"x_max":415,"ha":415,"o":"m 467 164 b 465 165 464 164 462 163 b 461 163 460 161 460 160 b 456 141 446 124 431 113 b 416 103 397 104 382 113 b 378 116 374 119 370 122 b 375 137 379 152 384 167 b 390 187 394 207 398 228 b 400 238 401 249 402 260 b 404 272 402 285 396 297 b 392 303 386 309 378 311 b 370 314 361 313 354 309 b 343 301 335 290 332 277 b 325 257 322 235 322 213 b 322 192 325 170 332 150 b 336 140 341 130 347 122 b 340 100 332 80 322 60 b 317 52 312 44 306 37 b 302 31 295 26 288 24 b 283 23 279 26 274 33 b 270 40 267 49 265 57 b 254 133 254 216 250 295 l 250 296 b 249 309 239 320 225 320 b 212 320 201 309 201 296 b 201 294 201 293 201 292 b 196 244 188 196 177 149 b 171 125 164 101 155 78 b 150 67 145 56 139 46 b 133 36 125 27 119 26 b 116 26 113 27 111 29 b 108 32 106 36 105 40 b 101 50 98 62 97 73 b 94 97 94 121 93 146 l 88 294 l 88 295 b 88 308 78 319 64 319 b 51 319 40 309 40 295 b 36 244 38 193 45 142 b 49 116 55 90 63 65 b 68 52 73 39 80 27 b 84 20 89 13 96 8 b 104 2 115 1 125 3 b 139 9 151 21 157 35 b 163 47 169 59 172 72 b 180 96 186 121 191 146 b 195 168 199 189 202 211 b 203 198 204 184 206 171 b 210 128 220 87 236 47 b 241 36 247 26 254 17 b 258 11 263 7 270 4 b 277 0 285 -1 292 1 b 305 4 316 11 324 22 b 331 31 337 40 342 50 b 351 67 358 85 365 104 b 367 102 371 100 374 98 b 395 85 421 86 440 100 b 458 115 469 135 472 157 b 473 160 470 164 467 164 z m 361 173 b 359 164 356 156 354 147 b 353 150 351 153 350 156 b 345 174 342 194 343 213 b 343 232 347 251 353 270 b 355 277 360 283 365 288 b 369 289 371 289 375 284 b 378 277 379 269 378 261 b 377 251 376 242 374 232 b 371 212 366 193 361 173 z"},"-":{"x_min":0,"x_max":413,"ha":413,"o":"m 353 290 l 60 290 b 50 290 42 282 42 272 b 42 262 50 254 60 254 l 353 254 b 363 254 371 262 371 272 b 371 282 363 290 353 290 z"},"E":{"x_min":0,"x_max":413,"ha":413,"o":"m 469 169 b 465 170 462 168 461 165 b 449 127 427 93 396 68 b 365 43 328 30 288 29 b 250 27 211 37 178 56 b 146 74 121 101 106 135 b 92 167 88 204 97 238 b 103 274 121 307 148 331 b 178 354 214 368 252 371 b 259 372 266 372 272 372 b 285 369 298 367 311 365 l 327 363 l 335 362 b 337 362 339 362 340 362 b 342 363 344 363 345 363 b 347 364 348 364 349 365 b 352 367 354 371 354 375 b 354 378 353 381 351 384 b 350 385 350 385 349 386 b 345 388 342 390 338 391 l 330 393 b 324 394 319 395 314 396 b 301 397 288 398 275 398 b 251 405 228 416 207 431 b 176 453 152 482 136 517 b 120 551 111 588 108 626 b 105 663 110 700 123 735 b 135 770 156 802 184 828 b 212 852 249 865 287 864 b 325 864 361 845 384 815 b 394 799 398 781 395 762 b 392 743 383 726 370 711 b 368 709 368 705 371 703 b 373 700 377 701 379 703 b 394 719 405 738 410 759 b 414 781 411 805 399 824 b 374 861 334 885 289 888 b 244 892 200 881 163 855 b 127 828 99 793 81 752 b 72 732 65 710 62 688 b 59 666 58 644 60 622 b 64 578 77 535 99 497 b 121 459 153 427 191 405 b 197 401 204 397 211 394 b 181 389 152 378 126 360 b 67 321 35 252 43 181 b 51 111 97 51 163 25 b 203 9 247 2 290 7 b 333 10 374 27 406 55 b 438 84 460 121 473 161 b 474 164 472 168 469 169 z"},"s":{"x_min":0,"x_max":250,"ha":250,"o":"m 313 160 b 311 161 309 160 308 160 b 307 159 306 157 305 156 b 302 137 293 120 279 108 b 264 96 246 90 227 90 b 218 90 208 90 199 90 b 200 97 201 104 201 111 b 201 122 200 133 197 145 b 186 185 166 224 141 257 b 122 281 108 309 101 338 b 102 346 104 353 105 361 l 106 369 b 107 371 107 373 106 375 b 106 376 106 377 106 378 b 105 379 105 380 104 381 b 103 383 100 385 98 386 b 95 387 91 387 89 386 b 87 385 86 384 84 383 b 84 382 83 381 83 381 b 82 380 81 378 81 377 b 78 372 76 366 75 361 b 71 345 71 329 74 314 l 69 276 b 62 237 55 198 45 159 b 45 156 46 153 50 152 b 53 151 56 153 57 156 b 68 195 77 234 86 273 l 87 276 b 93 262 99 249 105 236 b 124 204 139 169 151 134 b 154 120 156 107 156 93 b 150 93 144 93 138 93 b 126 93 115 89 105 83 b 94 75 88 63 87 50 b 86 38 89 25 96 14 b 105 3 118 -3 132 -3 b 146 -1 158 5 167 16 b 182 33 192 54 196 76 b 207 76 218 76 229 77 b 250 78 270 86 287 98 b 303 113 314 132 317 153 b 318 157 316 160 313 160 z m 145 33 b 137 20 123 18 114 28 b 105 40 106 57 116 68 b 128 75 142 78 156 76 b 156 61 152 47 145 33 z"},">":{"x_min":0,"x_max":445,"ha":445,"o":"m 108 12 b 107 11 106 9 106 8 b 106 6 107 4 108 3 b 110 1 113 1 116 3 l 394 258 b 399 261 402 267 403 273 b 404 279 402 285 399 290 l 398 292 l 397 292 l 117 562 b 115 565 111 565 108 563 b 106 561 105 557 107 554 l 346 280 z"},"l":{"x_min":0,"x_max":208,"ha":208,"o":"m 268 166 b 264 167 261 165 260 162 b 252 127 238 94 219 64 b 209 50 197 39 182 31 b 168 26 153 28 141 36 b 117 54 106 89 98 122 b 90 156 83 190 78 225 b 75 257 72 289 70 321 b 114 371 151 428 178 490 b 208 558 224 632 224 706 b 225 744 220 782 211 818 b 206 838 198 856 185 872 b 177 882 166 888 153 888 b 141 889 129 884 120 875 b 106 860 95 843 88 824 b 81 807 75 789 70 771 b 61 735 53 698 48 662 b 37 589 29 515 25 442 b 21 367 23 293 31 219 b 34 181 42 144 54 108 b 62 89 71 72 81 55 b 93 37 109 23 128 13 b 147 2 171 1 191 12 b 209 22 223 37 233 54 b 252 87 265 122 272 159 b 273 162 271 166 268 166 z m 77 658 b 81 694 86 729 94 765 b 100 798 115 830 136 857 b 140 862 146 864 152 864 b 158 864 164 861 167 856 b 178 843 185 828 189 812 b 199 778 203 742 203 707 b 203 572 156 442 69 339 b 63 445 66 552 77 658 z"},"8":{"x_min":0,"x_max":414,"ha":414,"o":"m 393 510 b 402 558 390 607 361 645 b 331 682 288 705 242 709 b 196 715 150 706 111 682 b 71 656 44 615 36 567 b 32 545 31 521 34 498 b 37 474 46 451 58 430 b 84 393 119 362 159 341 b 162 338 166 336 170 334 b 140 319 112 300 88 276 b 53 244 31 200 27 152 b 26 128 32 103 43 82 b 54 59 72 41 93 29 b 133 7 179 -2 224 2 b 270 5 313 27 341 64 b 354 83 362 105 365 128 b 368 150 367 173 362 196 b 350 240 324 279 287 306 b 269 319 251 332 233 344 b 265 355 296 372 323 393 b 360 422 385 464 393 510 z m 332 188 b 344 151 339 112 319 79 b 296 48 260 29 222 27 b 202 25 183 27 164 32 b 146 38 129 47 114 59 b 101 70 91 85 85 101 b 79 117 75 134 75 151 b 78 188 92 223 116 251 b 138 277 162 301 189 323 b 214 309 240 293 264 276 b 296 256 320 224 332 188 z m 215 355 b 204 363 193 370 182 377 b 149 397 120 423 99 455 b 81 487 76 524 83 559 b 88 596 104 630 131 655 b 160 681 200 692 238 684 b 275 677 307 654 326 621 b 343 589 351 553 347 517 b 341 480 324 446 298 420 b 274 395 246 373 215 355 z"},"\\":{"x_min":0,"x_max":378,"ha":378,"o":"m 335 8 l 78 776 b 76 782 70 787 64 788 b 58 789 51 787 47 782 b 42 777 41 770 43 764 l 300 -4 b 303 -13 314 -18 323 -15 b 333 -12 338 -2 335 8 z"},"e":{"x_min":0,"x_max":239,"ha":239,"o":"m 300 169 b 297 170 293 168 293 165 l 293 165 b 284 130 268 97 246 69 b 225 42 192 22 162 32 b 132 43 109 68 101 99 b 100 101 100 103 99 105 b 126 122 151 142 173 166 b 186 180 197 196 205 214 b 214 233 217 254 213 274 b 210 285 205 295 198 303 b 190 312 180 318 168 320 b 146 325 124 320 106 306 b 89 294 75 277 65 258 b 56 241 49 221 44 201 b 37 161 43 118 62 82 b 80 43 115 15 157 6 b 178 3 199 7 218 18 b 234 28 249 42 260 58 b 281 90 296 125 304 162 b 305 163 305 165 304 166 b 303 168 301 169 300 169 z m 91 195 b 92 227 103 258 123 284 b 133 295 148 300 163 297 b 177 294 188 283 191 269 b 195 253 193 237 186 222 b 179 206 170 192 158 179 b 139 159 117 142 93 128 b 89 150 89 172 91 195 z"},"b":{"x_min":0,"x_max":392,"ha":392,"o":"m 445 167 b 442 168 438 166 438 163 l 438 162 b 434 140 420 121 401 110 b 384 102 364 100 345 102 b 349 113 352 124 353 135 b 361 189 345 243 308 283 b 290 303 264 316 237 320 b 223 322 209 320 196 315 b 184 309 173 301 164 291 b 147 272 134 251 124 228 b 115 206 106 183 99 160 b 96 148 93 136 90 124 b 89 190 88 257 88 323 b 124 365 155 411 180 461 b 209 518 227 580 235 644 b 238 676 239 708 237 740 b 236 773 230 805 219 836 b 214 854 203 869 188 880 b 179 887 167 889 156 886 b 146 883 137 877 131 870 b 109 843 94 813 86 780 b 71 717 62 654 58 590 b 53 526 49 463 47 400 b 42 273 39 147 43 20 b 43 7 54 -4 67 -4 b 78 -3 87 3 90 13 b 90 14 91 15 91 16 l 91 17 b 96 63 105 109 119 154 b 130 198 151 240 180 275 b 193 291 213 298 233 295 b 253 290 271 278 281 261 b 292 243 300 223 303 203 b 306 182 307 161 305 140 b 304 130 303 119 301 109 b 289 111 277 113 265 115 b 253 117 240 118 228 118 b 214 118 200 112 190 102 b 181 91 176 77 175 63 b 175 49 179 34 189 23 b 209 1 240 -5 268 6 b 292 18 313 37 326 61 b 331 70 336 80 340 90 b 363 87 386 90 406 99 b 418 105 428 114 435 125 b 441 135 446 147 449 159 b 449 161 449 162 449 164 b 448 165 446 166 445 167 z m 88 399 b 88 462 89 525 92 587 b 94 650 101 711 113 772 b 119 801 131 828 149 852 b 158 862 167 866 175 860 b 186 852 194 841 198 828 b 209 799 215 769 217 739 b 219 708 218 677 216 646 b 204 534 159 429 88 342 b 87 361 87 380 87 399 z m 292 79 b 287 59 274 42 257 31 b 240 21 219 24 205 38 b 199 45 195 54 196 63 b 196 73 199 82 204 90 b 215 105 241 104 263 101 b 275 99 286 97 298 95 b 296 90 294 84 292 79 z"},"%":{"x_min":0,"x_max":491,"ha":491,"o":"m 92 500 b 103 493 115 488 128 486 b 141 485 154 486 167 490 b 191 499 212 515 226 537 b 241 559 245 587 237 613 b 229 637 213 659 191 673 b 180 680 168 684 155 686 b 142 688 130 688 117 686 b 104 683 92 678 81 670 b 70 662 61 651 54 639 b 48 627 44 615 43 601 b 41 588 42 575 45 562 b 53 536 69 515 92 500 z m 95 622 b 98 638 110 652 125 659 b 141 667 161 664 175 653 b 188 640 195 622 195 604 b 195 587 194 571 191 554 b 186 536 174 522 157 514 b 150 510 141 509 132 511 b 124 513 117 518 111 524 b 100 538 93 555 91 572 b 90 589 91 606 95 622 z m 445 169 b 436 193 420 215 399 229 b 388 236 375 240 362 242 b 350 244 337 244 325 242 b 312 239 299 234 289 226 b 278 218 268 207 262 195 b 256 183 252 171 251 157 b 249 144 250 131 253 118 b 261 92 277 71 299 56 b 310 49 323 44 336 42 b 349 41 362 42 374 46 b 399 55 419 71 434 93 b 449 115 453 143 445 169 z m 398 110 b 393 92 381 78 365 70 b 357 66 348 65 340 67 b 332 69 324 74 319 80 b 308 94 301 111 299 128 b 297 145 298 162 302 178 b 306 194 317 208 332 215 b 349 223 368 220 383 209 b 395 196 402 178 403 160 b 403 143 401 127 398 110 z m 434 747 b 425 751 414 747 409 738 l 50 13 b 47 7 47 0 51 -6 b 54 -11 61 -14 67 -14 b 74 -13 80 -9 82 -3 l 442 722 b 446 731 443 742 434 747 z"},"m":{"x_min":0,"x_max":438,"ha":438,"o":"m 497 166 b 494 167 491 165 490 162 b 480 129 466 98 448 69 b 439 55 429 43 416 33 b 411 29 405 27 399 27 b 394 27 389 30 385 34 b 378 46 374 59 375 73 b 375 89 376 105 378 121 b 383 155 385 189 384 224 b 384 243 381 262 375 280 b 372 291 366 301 358 309 b 349 317 337 321 324 320 b 313 319 302 314 294 305 b 288 298 282 290 278 282 b 270 265 264 248 259 231 b 253 207 249 184 245 160 b 245 167 245 173 244 180 b 242 206 237 232 229 258 b 225 272 220 285 213 297 b 208 305 202 312 193 316 b 185 320 175 320 166 317 b 151 312 139 301 132 287 b 126 275 120 263 116 250 b 108 225 102 200 97 175 b 95 161 93 148 91 135 l 93 297 b 93 310 82 321 69 321 b 55 321 44 311 44 297 l 41 26 b 41 13 52 2 65 2 b 79 1 90 12 90 26 l 90 31 b 94 78 101 125 112 171 b 117 196 125 220 134 243 b 138 254 144 265 150 275 b 155 284 163 291 172 294 b 175 295 179 294 182 293 b 185 290 187 287 188 284 b 192 273 195 262 196 251 b 198 227 197 202 197 177 b 197 127 194 78 196 26 b 195 12 206 1 219 1 b 233 1 244 11 244 25 l 244 26 b 245 41 246 57 247 74 b 251 125 261 176 276 226 b 281 242 288 257 296 271 b 304 285 315 297 325 296 b 349 296 347 257 342 226 b 336 192 332 157 331 123 b 331 104 333 86 337 68 b 341 47 351 28 367 13 b 376 6 388 2 400 3 b 411 4 421 9 429 16 b 443 29 454 44 462 60 b 478 91 491 124 501 158 b 502 161 500 165 497 166 z"},"#":{"x_min":0,"x_max":602,"ha":602,"o":"m 571 308 l 414 308 l 440 547 l 571 547 b 581 547 589 555 589 565 b 589 575 581 584 571 584 l 444 584 l 465 777 b 466 783 463 790 458 794 b 452 797 445 798 439 796 b 433 793 429 787 429 780 l 407 584 l 255 584 l 276 776 b 277 783 274 790 269 793 b 263 797 256 798 250 795 b 244 793 240 787 240 780 l 218 583 l 60 583 b 50 583 42 575 42 565 b 42 555 50 547 60 547 l 214 547 l 188 308 l 60 308 b 50 308 42 300 42 290 b 42 280 50 272 60 272 l 184 272 l 156 6 b 155 -4 162 -12 172 -13 b 182 -14 191 -7 192 2 l 221 272 l 374 272 l 345 6 b 344 0 347 -7 352 -11 b 357 -15 364 -15 370 -13 b 376 -10 380 -4 381 2 l 410 272 l 571 272 b 581 272 589 280 589 290 b 589 300 581 308 571 308 z m 378 308 l 225 308 l 251 547 l 403 547 z"},",":{"x_min":0,"x_max":155,"ha":155,"o":"m 110 48 b 108 54 105 60 100 65 b 98 67 95 69 91 70 b 85 70 79 67 75 62 b 71 57 70 50 72 44 b 74 39 75 33 75 28 b 76 22 75 16 73 10 b 71 3 67 -3 63 -8 b 57 -14 51 -19 43 -23 l 43 -23 b 41 -24 40 -25 40 -26 b 40 -27 40 -28 41 -29 b 41 -30 42 -31 43 -32 b 54 -34 66 -33 76 -29 b 87 -24 96 -16 103 -6 b 110 4 114 16 113 29 b 113 35 112 42 110 48 z"},"n":{"x_min":0,"x_max":338,"ha":338,"o":"m 396 167 b 394 167 393 167 391 166 b 390 165 389 164 389 162 l 389 162 b 381 127 367 94 348 65 b 339 51 327 39 313 30 b 308 27 301 26 295 27 b 290 30 285 34 282 39 b 277 53 275 69 276 84 b 277 100 280 117 282 135 b 287 172 288 210 282 248 b 280 270 270 290 254 306 b 245 313 234 319 223 321 b 211 322 200 321 189 317 b 171 308 156 293 145 276 b 135 260 126 244 119 226 b 108 198 98 170 90 141 l 90 300 b 90 313 79 324 65 324 b 52 324 41 313 41 300 l 41 26 b 41 13 52 2 65 2 b 79 2 90 13 90 26 l 90 92 b 101 136 116 178 135 219 b 142 235 151 250 162 264 b 171 277 183 288 198 295 b 204 297 211 297 217 296 b 224 294 230 290 234 285 b 241 273 245 258 243 244 b 242 211 236 176 234 139 b 234 120 234 100 237 82 b 239 60 247 40 259 22 b 267 13 278 6 290 3 b 302 1 314 4 324 11 b 340 23 353 38 362 55 b 381 88 394 123 401 160 b 401 163 399 166 396 167 z"},"h":{"x_min":0,"x_max":347,"ha":347,"o":"m 399 168 b 398 168 396 168 394 167 b 393 166 392 165 392 163 l 392 163 b 384 128 371 95 351 66 b 342 52 330 40 316 31 b 311 28 304 27 298 28 b 293 31 289 35 286 40 b 280 54 278 70 280 85 b 280 101 283 119 285 136 b 291 173 291 211 286 249 b 283 271 273 291 257 307 b 248 315 238 320 226 322 b 215 323 203 322 192 318 b 174 309 159 294 148 277 b 138 261 129 245 122 227 b 110 196 99 165 90 133 b 89 196 89 260 88 323 b 125 365 156 411 180 461 b 209 518 228 580 236 643 b 239 675 240 707 239 739 b 238 771 232 803 222 834 b 217 851 207 867 194 879 b 185 886 174 889 163 888 b 152 886 143 881 135 874 b 113 849 97 818 89 786 b 84 770 81 754 77 738 l 70 691 b 65 660 62 628 59 597 b 54 534 50 471 48 408 b 43 282 39 156 42 30 b 43 17 54 6 67 7 b 81 7 91 18 91 31 l 91 31 b 91 49 91 67 91 85 b 102 131 118 177 138 220 b 145 236 154 251 165 265 b 174 278 186 289 201 296 b 207 298 214 298 221 296 b 227 295 233 291 237 286 b 244 274 248 259 246 245 b 245 212 239 177 238 140 b 237 121 238 101 240 82 b 242 61 250 41 262 23 b 270 14 281 7 293 4 b 305 2 317 5 327 12 b 343 23 356 39 366 56 b 384 89 397 124 404 161 b 404 162 404 164 403 165 b 402 167 401 168 399 168 z m 94 594 b 95 625 98 656 101 687 l 107 733 b 110 748 112 763 116 778 b 122 806 135 833 153 856 b 162 865 170 867 179 860 b 189 851 197 839 201 826 b 219 768 225 706 217 645 b 205 534 160 429 89 342 b 89 364 89 385 89 407 b 89 469 91 532 94 594 z"},"z":{"x_min":0,"x_max":305,"ha":305,"o":"m 357 154 b 358 157 356 160 353 161 b 350 162 347 160 346 157 b 324 87 291 22 247 -36 b 243 -40 239 -45 236 -50 b 233 -23 224 2 209 24 b 202 34 193 43 182 50 b 195 63 206 77 218 91 b 240 121 260 153 275 187 b 291 221 304 257 313 293 l 314 297 b 315 302 312 308 308 310 b 303 312 298 311 294 307 b 284 302 273 299 262 299 b 249 298 236 298 222 298 b 194 299 166 296 139 291 b 124 287 111 280 100 270 b 89 260 81 248 74 235 b 61 211 51 185 45 158 b 44 154 46 151 50 150 b 53 150 56 151 57 155 l 57 155 b 64 180 74 205 87 228 b 98 251 118 267 143 273 b 169 277 195 278 222 276 b 235 276 249 276 263 276 b 267 276 270 277 274 277 b 260 254 247 232 234 209 b 216 177 198 146 182 114 b 172 97 162 80 151 64 b 135 69 117 69 101 66 b 90 64 79 59 71 51 b 66 46 62 40 61 33 b 59 25 61 17 66 11 b 76 1 90 -3 103 0 b 114 1 124 5 133 10 b 145 18 156 26 166 35 b 176 29 185 21 192 11 b 201 -3 208 -18 211 -35 b 214 -48 215 -62 215 -76 b 180 -119 141 -159 105 -203 b 80 -232 61 -266 48 -302 b 43 -321 40 -340 41 -360 b 42 -381 48 -401 58 -418 b 71 -438 93 -449 116 -447 b 138 -444 157 -432 170 -414 b 191 -382 205 -346 213 -308 b 230 -236 238 -162 237 -87 b 237 -84 237 -80 237 -76 b 245 -66 253 -56 261 -46 b 305 14 338 82 357 154 z m 120 32 b 109 23 88 21 85 26 b 84 27 84 31 87 35 b 93 39 99 42 106 44 b 116 46 125 46 135 45 b 130 40 126 36 120 32 z m 191 -303 b 183 -337 170 -370 151 -400 b 143 -412 129 -421 114 -423 b 100 -424 86 -417 79 -405 b 70 -391 65 -375 65 -359 b 63 -342 65 -325 70 -308 b 81 -275 99 -243 121 -216 b 151 -179 184 -143 215 -105 b 214 -172 206 -238 191 -303 z"},"B":{"x_min":0,"x_max":618,"ha":618,"o":"m 673 166 b 672 166 670 166 669 165 b 667 165 666 163 666 162 b 662 144 647 130 629 127 b 615 126 601 128 588 132 b 590 141 592 150 593 159 b 596 181 597 203 594 226 b 591 249 583 272 570 292 b 557 312 539 328 518 339 b 495 350 470 357 445 358 b 478 379 506 406 529 438 b 579 512 594 603 572 690 b 568 704 563 718 556 732 b 552 739 548 746 544 752 b 540 759 535 764 530 769 b 512 792 490 811 466 828 b 443 844 417 857 390 867 b 337 887 278 892 222 879 b 166 867 117 832 86 784 b 56 736 46 677 60 621 b 66 594 78 568 95 546 b 113 522 138 507 166 501 b 168 500 171 501 172 503 b 173 505 174 507 173 509 b 172 511 170 512 168 513 b 143 518 120 533 105 553 b 89 574 78 599 73 624 b 62 676 72 730 101 774 b 131 817 176 847 227 857 b 232 858 237 859 242 859 b 242 859 242 858 242 857 l 242 857 b 250 772 256 685 261 599 b 266 513 268 427 266 341 b 264 298 262 256 256 214 b 252 172 242 132 225 95 b 206 61 176 25 139 24 b 120 24 102 32 88 46 b 74 60 62 77 53 96 l 53 96 b 52 99 49 101 46 100 b 43 99 41 95 42 92 b 48 70 60 50 75 33 b 91 14 114 2 139 0 b 164 0 188 9 207 25 b 225 40 241 58 253 78 b 265 98 274 119 281 142 b 287 163 293 185 297 207 b 305 251 310 295 312 339 b 317 426 317 514 313 602 b 309 688 301 775 290 861 b 321 859 351 851 379 838 b 425 817 466 784 496 742 b 523 701 537 652 534 603 b 533 553 519 504 494 460 b 466 416 429 380 384 354 l 382 353 b 377 350 375 344 377 338 b 379 333 385 330 391 331 b 428 331 465 322 497 303 b 526 285 545 253 547 219 b 549 201 548 183 545 165 b 545 158 543 152 542 145 b 513 156 482 162 451 161 b 428 159 407 149 392 133 b 374 117 366 94 368 70 b 371 47 385 26 406 14 b 426 2 451 0 474 7 b 526 26 567 67 584 120 b 599 116 615 114 630 115 b 642 116 653 121 661 129 b 669 137 674 147 678 158 l 678 158 b 678 160 678 161 677 163 b 676 164 675 165 673 166 z m 507 66 b 496 51 482 40 466 32 b 450 25 432 26 417 34 b 401 42 391 57 388 74 b 386 92 392 109 404 122 b 416 136 434 145 452 147 b 482 148 511 143 539 133 b 537 126 535 119 533 113 b 527 96 518 80 507 66 z"},"K":{"x_min":0,"x_max":581,"ha":581,"o":"m 675 845 b 665 859 653 870 638 878 b 623 887 605 891 588 890 b 553 884 522 866 501 839 b 480 813 463 785 452 753 b 441 724 431 694 423 664 b 406 604 393 545 372 490 b 357 445 330 406 292 378 b 292 397 293 415 293 433 b 293 535 282 636 260 735 b 253 761 245 785 235 809 b 225 835 207 857 184 873 b 171 881 157 886 142 887 b 127 887 112 882 100 872 b 81 853 68 828 65 801 b 64 798 66 795 69 794 b 72 793 75 794 76 797 l 76 798 b 82 820 95 840 113 855 b 130 867 153 865 169 851 b 204 825 215 775 224 727 b 239 630 246 532 244 433 b 245 384 244 334 241 285 b 239 236 234 187 226 139 b 222 116 214 94 202 74 b 191 55 175 39 156 29 b 135 22 113 27 96 41 b 78 56 63 75 53 97 l 53 97 b 52 100 49 101 46 100 b 43 99 41 96 42 93 b 50 67 64 44 84 26 b 105 6 135 -2 164 5 b 190 15 212 34 228 58 b 243 80 254 104 261 131 b 278 199 288 270 291 340 b 294 339 298 338 301 335 b 310 328 317 320 324 311 b 338 289 351 267 361 243 b 372 219 383 195 394 170 b 404 144 416 120 430 96 b 444 70 461 46 481 25 b 493 14 508 6 524 3 b 540 1 557 4 571 13 b 594 30 613 54 624 80 b 636 105 646 131 653 158 b 654 161 652 165 649 166 b 645 167 642 165 641 161 b 634 136 624 111 611 87 b 599 65 582 45 560 32 b 551 26 539 25 529 27 b 518 31 509 37 503 46 b 496 56 490 67 485 79 b 480 91 475 103 470 115 b 460 140 449 165 438 189 b 427 214 415 239 402 264 b 388 289 372 313 353 335 b 344 345 334 353 322 360 b 336 368 348 378 360 390 b 382 414 400 442 413 472 b 437 530 456 590 469 652 b 484 711 495 772 527 818 b 541 841 564 858 591 866 b 619 869 646 858 665 837 l 666 837 b 668 835 671 835 674 837 b 676 839 677 842 675 845 z"},"R":{"x_min":0,"x_max":660,"ha":660,"o":"m 726 166 b 724 167 722 166 721 166 b 719 165 718 164 718 162 b 708 136 697 111 685 86 b 675 62 659 42 637 28 b 618 19 597 33 583 56 b 569 79 557 104 543 128 b 514 177 481 223 442 265 b 423 286 401 306 378 324 b 375 326 372 327 369 329 b 375 330 381 330 387 331 b 420 333 451 341 481 353 b 512 366 540 386 562 411 b 584 436 602 464 615 494 b 641 557 645 626 626 691 b 617 723 602 754 582 781 b 560 807 534 829 504 845 b 447 876 383 891 318 889 b 285 889 253 883 223 873 b 192 862 164 845 141 822 b 94 776 71 711 80 646 b 84 614 95 583 112 556 b 130 528 158 508 191 502 b 194 501 197 503 198 507 b 198 510 196 513 193 514 b 164 520 138 538 123 563 b 107 588 97 617 94 647 b 88 707 110 767 154 808 b 180 832 212 849 247 857 l 247 857 b 255 771 260 685 264 599 b 269 513 270 427 268 341 b 266 299 263 256 257 214 b 253 173 242 133 225 95 b 206 61 176 26 139 25 b 120 25 102 33 89 47 b 74 61 62 78 53 97 b 52 100 49 102 46 101 b 43 99 41 96 42 93 b 48 71 60 50 75 34 b 91 15 114 3 139 1 b 164 0 188 9 207 26 b 225 41 240 59 253 79 b 264 99 274 120 280 142 b 287 163 293 185 297 207 b 304 248 309 289 312 330 b 330 324 346 314 360 301 b 380 283 397 262 413 240 b 444 196 471 148 504 102 b 521 79 540 57 559 37 b 570 24 582 14 596 6 b 612 -2 631 -2 648 6 b 662 14 673 26 682 39 b 689 52 696 65 701 78 b 712 104 722 131 729 158 b 730 161 729 165 726 166 z m 318 865 b 377 864 436 847 486 814 b 510 799 530 779 547 755 b 562 731 573 705 581 678 b 594 622 592 564 575 509 b 566 482 553 456 536 432 b 519 409 496 390 470 379 b 421 358 367 350 314 355 b 319 437 318 519 316 601 b 312 689 306 775 295 862 b 295 863 295 864 295 864 b 302 865 310 865 318 865 z"},"T":{"x_min":0,"x_max":426,"ha":426,"o":"m 755 881 b 752 883 748 882 746 880 l 746 878 b 735 863 720 851 702 844 b 684 836 666 831 646 828 b 607 824 568 827 530 836 b 490 843 451 852 410 858 b 370 863 329 868 288 870 b 245 873 203 870 161 861 b 139 857 118 848 99 836 b 80 824 64 806 54 785 b 45 764 41 742 42 720 b 41 698 46 676 55 656 b 76 617 113 590 156 582 b 159 582 162 584 163 587 b 164 590 162 593 159 594 l 158 594 b 122 604 92 630 76 664 b 61 699 62 739 79 772 b 99 803 132 822 168 824 b 207 829 246 829 284 824 b 312 822 339 819 367 815 b 366 730 366 646 366 562 b 366 470 366 378 359 286 b 355 241 348 196 338 152 b 336 142 333 131 329 121 b 326 110 322 100 317 91 b 309 72 296 55 280 42 b 273 37 265 33 256 32 b 247 31 238 33 230 36 b 212 46 197 61 187 79 b 177 98 169 119 165 141 b 160 163 156 186 154 209 l 154 209 b 154 212 151 215 147 214 b 144 214 142 211 142 208 b 142 184 143 161 147 138 b 149 113 156 90 166 67 b 177 43 195 23 217 10 b 230 4 244 1 259 1 b 273 3 287 7 299 15 b 344 47 363 96 377 142 b 389 188 398 235 402 282 b 412 376 416 469 414 563 b 413 646 407 729 396 811 l 404 810 b 444 804 484 800 525 798 b 546 797 567 797 588 797 b 609 798 630 801 651 806 b 694 813 732 838 757 873 b 758 876 757 880 755 881 z"},"P":{"x_min":0,"x_max":523,"ha":523,"o":"m 626 627 b 620 661 610 694 595 725 b 581 757 560 785 534 809 b 509 832 479 850 447 863 b 416 876 383 884 349 887 b 323 889 296 888 270 883 b 270 883 270 883 269 883 b 269 883 269 883 268 883 b 262 881 255 880 249 878 b 216 869 186 852 160 830 b 109 785 81 719 84 651 b 85 618 94 585 111 556 b 128 526 157 504 191 497 b 193 497 195 498 197 499 b 198 501 198 503 198 505 b 197 507 195 509 193 509 b 163 516 137 535 122 562 b 106 590 98 620 98 652 b 97 715 124 775 173 815 b 195 833 220 846 247 855 b 255 770 261 684 264 599 b 269 512 270 426 268 341 b 266 298 263 256 257 213 b 253 172 242 132 225 95 b 206 61 176 25 139 24 b 120 25 102 33 89 46 b 74 61 62 78 53 97 l 53 97 b 52 100 49 101 46 100 b 43 99 41 96 42 93 b 48 70 60 50 75 33 b 91 14 114 2 139 0 b 164 0 188 9 207 26 b 225 41 240 58 253 78 b 264 98 274 119 280 142 b 287 163 293 185 297 207 b 304 249 310 292 313 335 b 322 322 334 311 348 303 b 380 287 417 284 451 294 b 484 303 515 319 542 341 b 570 363 591 392 606 424 b 633 488 640 559 626 627 z m 566 441 b 556 413 541 387 519 367 b 498 346 472 329 443 319 b 416 308 385 309 357 320 b 339 329 325 342 314 359 b 320 440 319 520 316 601 b 313 688 306 775 296 862 b 296 862 295 863 295 863 b 312 864 329 864 346 862 b 408 854 464 826 507 782 b 528 760 544 734 554 707 b 566 679 575 649 579 619 b 589 560 584 498 566 441 z"},"|":{"x_min":0,"x_max":123,"ha":123,"o":"m 78 745 b 78 755 70 763 60 763 b 50 763 42 755 42 745 l 44 -65 b 44 -75 52 -83 62 -83 b 72 -83 80 -75 80 -65 z"},"t":{"x_min":0,"x_max":223,"ha":223,"o":"m 349 464 b 346 466 342 466 340 464 b 306 431 255 433 210 447 b 196 451 183 455 170 459 b 174 468 179 476 182 485 b 212 553 228 627 228 702 b 229 739 225 777 216 813 b 211 833 202 851 189 867 b 182 877 170 883 158 884 b 145 884 133 879 125 870 b 111 855 100 838 93 819 b 85 802 79 784 75 766 b 65 730 58 694 52 657 b 45 607 39 557 35 507 b 23 510 12 513 0 515 b -77 531 -157 502 -207 441 b -209 439 -208 435 -206 433 b -203 431 -200 431 -197 433 l -197 434 b -164 468 -121 490 -74 496 b -38 499 -1 495 33 483 b 32 468 31 452 30 437 b 25 363 27 288 35 214 b 39 176 47 139 59 103 b 66 85 75 67 86 50 b 97 32 113 18 132 8 b 152 -3 176 -3 196 7 b 213 17 228 32 237 49 b 256 82 269 117 277 154 b 277 157 275 161 272 161 b 269 162 266 160 265 157 b 257 122 243 89 223 59 b 214 45 201 34 186 26 b 173 21 157 23 145 31 b 121 49 111 84 103 117 b 94 151 87 185 83 220 b 79 252 76 284 74 316 b 108 353 136 395 160 439 b 175 434 189 429 205 425 b 229 419 255 417 281 419 b 307 423 332 436 349 456 b 351 458 351 462 349 464 z m 73 334 b 71 379 70 425 71 470 b 95 461 120 452 145 443 b 125 404 101 368 73 334 z m 156 464 b 128 474 100 486 72 495 l 71 495 b 73 548 76 601 81 653 b 85 689 91 724 98 760 b 105 793 119 825 141 852 b 145 857 150 860 157 859 b 163 859 168 856 172 851 b 182 838 190 823 194 807 b 203 773 208 737 207 702 b 209 620 191 538 155 464 z"},"M":{"x_min":0,"x_max":795,"ha":795,"o":"m 849 165 b 848 166 846 166 845 165 b 843 164 842 163 841 162 b 829 123 811 86 789 52 b 779 37 763 28 746 27 b 733 28 722 45 717 62 b 709 102 706 142 709 182 b 709 223 712 265 713 306 b 716 389 719 473 715 558 b 712 600 709 642 704 684 b 699 727 688 769 674 809 b 666 831 653 850 636 866 b 628 874 617 881 606 885 b 593 889 579 889 566 883 b 546 871 529 853 520 832 b 510 813 501 793 494 772 b 470 691 452 609 441 525 b 439 512 438 498 436 485 b 431 555 421 625 408 693 b 401 731 391 768 378 803 b 372 822 363 840 351 856 b 338 875 317 887 294 887 b 282 886 271 881 261 874 b 253 867 246 859 240 851 b 229 834 220 817 213 799 b 199 764 188 728 179 691 b 162 624 151 556 140 488 b 140 504 140 519 139 535 b 137 621 127 707 111 791 b 108 802 105 813 101 823 b 97 834 91 845 84 854 b 77 865 68 873 57 880 b 45 886 32 889 18 887 b -6 882 -26 866 -38 845 b -51 825 -56 802 -54 779 b -54 776 -51 773 -47 773 b -44 774 -41 776 -42 780 l -42 780 b -41 800 -34 819 -23 835 b -13 850 3 861 21 864 b 38 864 54 854 62 839 b 67 831 71 823 74 814 b 77 804 79 794 81 785 b 87 743 91 702 93 660 b 95 618 96 576 96 534 b 97 449 95 365 94 280 l 89 26 l 89 25 b 89 11 99 0 113 0 b 126 0 137 11 137 24 b 140 74 142 124 143 174 b 148 272 156 370 167 467 b 176 540 188 613 205 685 b 213 720 223 755 236 789 b 243 806 251 821 260 836 b 268 849 280 859 295 862 b 310 861 323 853 330 840 b 340 826 348 810 353 794 b 364 759 372 724 377 688 b 385 615 390 542 392 468 b 395 321 393 173 390 25 l 390 25 b 389 12 399 1 412 0 b 425 -1 437 8 438 21 l 438 23 b 442 91 444 158 444 226 b 449 325 457 423 469 521 b 479 603 495 684 519 764 b 525 783 532 802 541 820 b 549 836 561 851 576 860 b 590 868 606 860 619 847 b 633 834 643 818 649 799 b 661 761 668 721 669 680 b 672 639 672 598 671 557 b 670 474 666 391 666 307 b 666 265 667 223 669 181 b 671 138 677 94 690 53 b 694 41 700 31 708 22 b 717 11 730 4 743 3 b 757 3 769 7 780 15 b 789 22 797 31 804 40 b 826 76 842 116 853 158 b 854 161 852 164 849 165 z"},"g":{"x_min":0,"x_max":366,"ha":366,"o":"m 427 166 b 426 166 424 166 423 165 b 421 164 420 163 420 161 b 402 102 376 46 343 -5 b 333 -19 323 -33 313 -47 b 322 66 326 179 327 293 l 327 293 b 327 307 316 318 303 317 b 289 317 278 306 279 293 b 279 290 279 287 279 284 b 267 297 251 307 234 313 b 201 324 164 322 132 306 b 100 290 75 264 59 232 b 44 200 38 164 43 128 b 45 111 51 94 58 78 b 66 62 76 47 89 34 b 95 28 103 22 111 17 b 115 15 119 13 123 11 l 136 7 b 153 2 172 2 189 6 b 206 11 221 20 234 32 b 246 44 256 57 264 71 b 270 80 274 89 279 99 b 278 40 275 -20 272 -79 b 272 -85 271 -91 271 -97 b 256 -114 240 -131 224 -147 b 203 -170 181 -192 160 -216 b 138 -240 121 -267 109 -297 b 97 -330 97 -365 109 -397 b 115 -415 128 -429 145 -438 b 162 -446 182 -447 201 -440 b 218 -434 233 -422 243 -407 b 248 -400 253 -392 256 -383 b 259 -376 262 -368 264 -360 b 273 -330 281 -299 286 -268 b 297 -206 304 -144 310 -82 b 310 -80 310 -79 310 -77 b 326 -57 342 -36 356 -14 b 389 39 415 97 431 158 b 432 161 430 165 427 166 z m 254 -262 b 250 -292 244 -322 236 -352 b 234 -359 231 -366 229 -373 b 227 -379 224 -385 220 -390 b 213 -401 203 -410 191 -415 b 180 -419 167 -419 156 -414 b 144 -409 136 -399 132 -387 b 121 -361 121 -332 130 -305 b 141 -277 157 -251 177 -229 b 196 -206 218 -183 239 -160 b 249 -149 259 -138 269 -127 b 266 -172 261 -218 254 -262 z m 251 80 b 236 55 212 36 184 29 b 171 26 157 28 145 34 b 133 38 122 46 115 57 b 101 80 92 107 91 134 b 88 161 92 188 101 214 b 110 239 126 262 148 278 b 172 294 201 299 228 293 b 249 288 268 276 279 258 b 280 217 280 177 279 136 b 272 116 263 97 251 80 z"},"j":{"x_min":0,"x_max":136,"ha":136,"o":"m 78 380 b 87 384 95 391 98 401 b 101 410 100 421 95 429 b 88 437 70 452 50 424 b 27 392 57 368 78 380 z m 193 176 b 191 177 189 176 188 176 b 186 175 185 173 185 172 b 168 113 142 57 108 5 b 98 -9 88 -23 78 -36 b 87 77 91 190 93 303 l 93 304 b 92 317 81 328 68 328 b 55 328 44 317 44 303 l 44 303 b 46 179 45 55 38 -68 b 37 -74 37 -80 36 -86 b 21 -103 6 -120 -10 -137 b -32 -159 -53 -181 -74 -205 b -96 -229 -114 -257 -126 -287 b -138 -319 -138 -354 -126 -386 b -119 -404 -106 -418 -90 -427 b -72 -436 -52 -437 -34 -430 b -17 -423 -2 -411 9 -396 b 14 -389 18 -381 21 -373 b 24 -365 27 -357 29 -350 b 39 -319 46 -289 52 -257 b 63 -195 70 -133 75 -71 b 75 -69 76 -68 76 -67 b 92 -46 107 -25 121 -3 b 155 50 180 108 197 169 b 198 172 196 175 192 176 z m 19 -252 b 15 -282 9 -312 1 -341 b -1 -348 -4 -355 -6 -362 b -8 -368 -11 -374 -15 -380 b -22 -391 -32 -399 -44 -404 b -55 -409 -68 -409 -79 -403 b -91 -398 -99 -389 -103 -377 b -113 -350 -114 -321 -104 -294 b -94 -266 -78 -241 -58 -219 b -39 -195 -17 -173 4 -150 b 14 -139 24 -128 34 -117 b 31 -162 26 -207 19 -252 z"},"i":{"x_min":0,"x_max":168,"ha":168,"o":"m 217 165 b 215 166 214 165 212 165 b 211 164 210 162 209 161 b 200 122 184 86 162 53 b 151 38 135 25 123 26 b 112 27 102 43 98 59 b 94 78 92 96 92 115 b 91 134 92 154 92 174 l 94 292 l 94 292 b 95 306 85 317 72 318 b 58 319 47 309 46 296 b 41 255 40 214 42 173 b 43 130 51 88 66 48 b 71 37 78 27 86 18 b 95 7 108 1 122 1 b 135 2 148 7 157 16 b 165 24 172 33 178 42 b 197 78 212 117 221 158 b 222 161 220 164 217 165 z m 87 374 b 97 378 104 385 107 395 b 111 404 110 415 104 423 b 98 431 79 446 59 418 b 37 386 67 362 87 374 z"},"y":{"x_min":0,"x_max":330,"ha":330,"o":"m 385 163 b 382 164 378 162 377 159 b 360 100 334 44 300 -7 b 291 -22 281 -36 271 -49 b 279 63 284 176 285 288 b 285 289 285 289 285 289 b 285 303 274 313 260 313 b 247 313 236 302 237 288 l 237 288 b 238 226 238 164 237 102 b 231 82 221 63 206 47 b 194 33 176 25 157 25 b 139 26 123 35 112 50 b 102 65 96 83 95 102 b 93 122 92 143 92 163 b 92 205 94 248 94 290 l 94 291 b 95 304 85 315 71 316 b 58 317 47 307 46 294 b 41 250 40 205 43 161 b 45 139 49 116 54 94 b 60 70 72 47 89 29 b 107 11 132 0 158 1 b 183 2 206 13 222 32 b 227 38 231 44 235 50 b 234 6 232 -38 230 -82 b 230 -88 229 -94 229 -99 b 214 -116 198 -133 183 -149 b 161 -172 139 -194 119 -218 b 97 -241 79 -269 67 -299 b 55 -331 54 -366 66 -398 b 72 -416 85 -431 102 -440 b 119 -448 139 -450 157 -443 b 175 -437 190 -425 200 -410 b 206 -403 210 -395 213 -387 b 216 -379 219 -371 221 -364 b 231 -333 238 -303 244 -271 b 255 -209 262 -147 268 -85 b 268 -83 268 -81 268 -80 b 284 -59 299 -38 313 -16 b 347 37 372 95 389 156 b 390 159 388 162 385 163 z m 212 -266 b 207 -296 201 -326 193 -355 b 191 -362 189 -369 186 -376 b 184 -382 181 -388 177 -393 b 170 -404 160 -412 148 -417 b 137 -422 124 -421 113 -416 b 101 -411 93 -401 89 -389 b 79 -363 79 -333 88 -306 b 99 -279 115 -253 135 -231 b 154 -208 176 -185 197 -162 b 207 -151 217 -140 227 -129 b 223 -175 219 -221 212 -266 z"},"@":{"x_min":0,"x_max":639,"ha":639,"o":"m 594 502 b 591 525 584 547 575 568 b 557 610 525 646 486 669 b 447 691 402 702 357 699 b 313 695 270 682 232 659 b 213 648 195 635 178 621 b 162 606 147 591 133 574 b 104 539 82 501 66 460 b 34 376 34 283 65 198 b 79 156 102 117 131 84 b 160 49 199 23 243 11 b 288 1 334 9 373 34 b 408 58 439 89 463 125 b 465 127 465 131 462 133 b 460 135 456 134 454 132 l 454 132 b 429 99 398 72 363 51 b 329 32 288 27 251 39 b 214 52 182 76 159 107 b 136 139 118 174 107 212 b 96 250 90 289 90 329 b 90 368 97 407 110 444 b 134 521 182 587 247 634 b 280 657 319 671 358 674 b 398 677 437 666 469 644 b 500 621 524 589 535 552 b 546 515 551 476 549 437 b 548 398 543 358 534 319 b 522 282 507 240 478 221 b 464 212 446 215 435 228 b 423 242 417 260 418 278 b 416 319 419 360 427 400 l 428 401 b 429 409 426 418 419 424 b 412 430 402 431 394 427 b 386 424 380 416 379 407 b 374 410 369 413 363 415 b 340 423 315 422 293 412 b 271 402 252 384 241 362 b 229 339 225 314 229 290 b 233 265 245 242 263 225 b 268 221 273 217 279 213 b 282 212 285 210 288 209 l 297 207 b 309 203 322 203 334 207 b 356 215 374 230 385 251 b 387 256 389 261 391 266 b 393 257 395 249 397 241 b 402 229 409 219 417 210 b 426 200 438 194 451 192 b 465 190 478 193 490 199 b 510 211 526 228 538 248 b 550 267 561 287 569 307 b 586 348 595 391 597 436 b 598 458 597 480 594 502 z m 371 260 b 362 245 346 234 329 229 b 321 228 313 229 305 233 b 298 236 293 241 289 248 b 281 263 277 279 277 295 b 275 311 277 328 282 343 b 287 359 296 373 309 384 b 323 394 340 398 357 395 b 366 393 374 390 380 384 b 382 353 384 323 388 292 b 383 281 378 270 371 260 z"},".":{"x_min":0,"x_max":154,"ha":154,"o":"m 108 54 b 101 62 83 76 63 48 b 41 17 70 -7 91 5 b 100 9 107 16 111 26 b 114 35 113 46 108 54 z"},"p":{"x_min":0,"x_max":329,"ha":329,"o":"m 383 164 b 381 164 380 164 378 163 b 377 162 376 161 375 159 b 371 131 351 108 323 99 b 317 98 311 97 304 97 b 318 139 320 183 309 225 b 304 242 296 257 286 272 b 276 286 262 298 246 306 b 213 325 172 315 150 285 b 131 259 118 230 110 199 b 101 170 94 140 89 110 l 89 112 b 91 173 91 234 90 294 b 90 308 79 319 66 319 b 53 319 42 308 42 294 b 41 233 41 173 42 112 l 46 -70 l 53 -434 b 53 -441 59 -446 66 -446 b 72 -446 78 -441 78 -434 l 86 -70 l 87 -21 b 92 22 98 64 106 107 b 112 136 119 165 129 193 b 137 221 150 247 167 270 b 175 280 186 287 198 290 b 210 292 223 289 233 282 b 253 266 266 242 266 216 b 269 189 269 161 265 134 b 264 123 263 112 261 101 b 251 101 242 101 233 100 b 216 98 200 89 188 76 b 175 61 172 40 179 22 b 184 12 192 5 202 1 b 212 -2 223 -2 233 2 b 250 9 264 21 274 36 b 284 51 293 67 299 83 b 308 83 317 84 326 86 b 343 90 357 100 367 113 b 376 126 383 140 387 156 b 387 157 387 159 387 161 b 386 162 384 163 383 163 z m 247 53 b 242 42 234 32 224 26 b 220 23 215 23 210 24 b 206 25 202 28 200 32 b 195 43 196 55 204 64 b 212 74 223 81 236 84 b 243 85 250 85 257 85 b 255 74 251 63 246 53 z"},"X":{"x_min":0,"x_max":635,"ha":635,"o":"m 698 166 b 697 166 695 166 694 165 b 692 165 691 164 691 162 b 679 132 665 103 649 76 b 641 62 632 50 621 39 b 612 30 599 25 586 25 b 561 28 542 56 527 82 b 512 110 500 139 490 169 b 469 229 451 291 434 353 b 432 362 429 371 427 379 b 466 457 503 535 539 614 b 579 700 618 786 655 874 b 656 877 655 880 652 881 b 649 883 645 881 644 878 l 521 622 b 487 552 453 483 418 414 b 406 456 395 498 385 541 b 368 603 353 666 335 729 b 327 763 314 795 296 824 b 277 855 246 878 210 885 b 173 891 136 878 111 851 b 87 825 72 792 70 757 b 66 723 72 689 87 658 b 103 628 127 602 156 585 b 159 583 163 584 164 587 b 166 590 165 594 162 595 l 162 596 b 136 613 114 636 101 665 b 88 693 84 724 89 755 b 91 786 105 814 126 836 b 147 856 176 866 205 860 b 233 853 257 834 270 808 b 285 781 295 751 300 721 l 340 530 b 354 470 368 410 385 351 b 344 272 303 195 257 120 b 245 100 231 81 217 63 b 205 45 188 32 168 26 b 147 22 127 28 111 42 b 94 54 81 73 76 94 l 76 95 b 75 98 72 100 69 99 b 66 99 64 96 64 93 b 65 67 77 42 97 25 b 117 6 145 -3 173 2 b 199 9 221 25 236 47 b 252 66 266 86 278 106 b 322 174 359 245 395 316 b 411 261 430 207 453 154 b 466 123 482 94 500 65 b 509 51 520 37 533 25 b 547 11 565 2 584 1 b 604 1 623 9 636 24 b 648 37 657 51 665 66 b 680 96 692 126 702 158 b 703 161 701 164 698 166 z"},"*":{"x_min":0,"x_max":206,"ha":206,"o":"m 140 746 b 136 749 133 752 129 755 b 133 758 136 761 139 764 b 148 772 156 781 163 791 b 164 793 164 795 163 796 b 162 798 161 798 159 798 b 147 795 136 791 125 785 b 122 784 119 782 117 781 b 116 784 116 787 115 790 b 114 802 111 814 106 825 b 106 827 105 827 104 828 b 101 829 99 828 98 825 b 94 814 91 802 90 790 b 89 787 89 784 89 781 b 86 783 84 784 81 785 b 70 791 59 795 47 798 b 46 798 44 798 43 796 b 42 795 42 793 43 792 b 50 782 58 772 67 764 b 70 761 74 758 77 755 b 73 752 70 749 66 746 b 57 738 49 729 43 718 b 42 717 42 715 43 714 b 44 712 45 711 47 712 b 59 714 71 718 82 724 b 84 725 87 727 89 728 b 90 725 90 722 90 720 b 92 707 95 696 100 684 b 101 683 102 683 103 682 b 104 682 105 682 106 682 b 107 683 108 683 108 684 b 113 696 116 708 117 720 b 118 722 118 725 118 728 b 120 726 122 725 125 724 b 136 718 147 714 159 712 b 161 711 163 712 164 714 b 165 715 165 717 164 718 b 157 729 149 738 140 746 z"},"Y":{"x_min":0,"x_max":521,"ha":521,"o":"m 542 865 l 542 867 b 542 880 531 891 517 891 b 504 890 493 879 493 866 b 489 726 477 587 456 449 b 450 415 444 380 435 347 b 428 314 416 282 401 251 b 386 221 365 194 341 171 b 318 148 288 133 255 128 b 223 125 192 136 169 159 b 145 182 128 211 118 243 b 108 275 102 308 100 342 b 97 376 96 410 95 445 b 90 584 96 724 100 863 l 100 863 b 101 877 91 888 77 889 b 64 890 52 879 52 866 b 41 725 39 584 46 443 b 48 407 52 371 58 336 b 64 300 74 265 88 231 b 102 196 124 165 151 140 b 180 113 219 100 258 104 b 295 109 331 125 358 152 b 385 177 407 206 424 239 b 441 271 454 305 462 340 b 470 370 476 399 482 429 b 478 336 471 243 462 151 b 456 92 446 34 434 -24 b 420 -81 403 -138 360 -171 b 315 -205 254 -209 205 -181 b 153 -153 120 -101 117 -43 b 117 -39 114 -37 111 -37 b 108 -37 105 -39 105 -43 b 105 -107 139 -166 194 -199 b 222 -216 253 -225 286 -225 b 319 -225 351 -215 378 -195 b 404 -176 425 -150 439 -121 b 453 -93 463 -63 471 -33 b 487 25 498 85 506 145 b 523 265 531 385 537 505 b 543 625 544 745 542 865 z"},"c":{"x_min":0,"x_max":239,"ha":239,"o":"m 300 165 b 298 165 297 165 295 164 b 294 164 293 162 292 161 l 292 161 b 286 133 274 107 259 83 b 246 60 225 41 201 30 b 190 25 177 24 166 27 b 154 30 143 36 133 44 b 115 61 102 83 97 108 b 90 132 88 158 90 183 b 92 209 98 234 109 257 b 117 280 139 294 163 293 b 174 292 184 285 190 275 b 196 263 198 250 197 237 l 197 237 b 196 234 199 231 202 230 b 205 230 208 232 209 235 b 213 251 212 267 206 282 b 199 299 185 311 168 316 b 133 323 97 307 78 277 b 40 224 30 155 54 93 b 66 62 87 36 115 18 b 129 9 145 3 161 1 b 178 -1 195 2 210 9 b 237 24 259 47 273 75 b 287 101 298 129 304 157 b 305 159 304 161 304 162 b 303 164 301 165 300 165 z"},"!":{"x_min":0,"x_max":144,"ha":144,"o":"m 50 48 b 28 17 57 -7 78 5 b 87 8 94 16 98 25 b 101 35 100 45 95 54 b 88 61 70 76 50 48 z m 58 329 b 61 275 64 221 69 167 b 69 164 72 161 75 161 b 78 161 81 164 81 167 b 86 221 89 275 92 329 b 95 383 97 437 99 492 b 100 546 101 600 102 654 b 102 708 102 762 99 816 b 99 830 88 841 75 841 b 62 841 51 830 51 816 b 48 762 48 708 48 654 b 49 600 50 546 51 492 b 54 437 55 383 58 329 z"},"/":{"x_min":0,"x_max":378,"ha":378,"o":"m 323 788 b 319 790 314 790 309 787 b 305 785 302 782 300 777 l 43 9 b 40 0 45 -11 54 -14 b 64 -17 74 -12 78 -3 l 335 765 b 338 775 333 785 323 788 z"},"[":{"x_min":0,"x_max":286,"ha":286,"o":"m 237 -67 l 72 -61 b 75 -25 77 12 80 48 l 86 169 b 89 250 91 331 92 412 b 94 492 95 573 94 654 b 93 731 92 808 89 885 l 237 890 b 241 890 243 893 243 897 b 243 900 241 903 237 903 l 77 909 b 71 909 65 904 65 898 l 65 897 b 59 816 55 735 51 655 b 48 574 46 493 44 412 b 42 331 42 251 42 170 l 43 49 b 45 8 45 -32 47 -73 l 47 -74 b 48 -80 53 -85 60 -85 l 237 -79 b 241 -79 243 -76 243 -73 b 243 -70 241 -67 237 -67 z"},"6":{"x_min":0,"x_max":451,"ha":451,"o":"m 420 224 b 410 267 383 304 346 327 b 310 350 266 356 225 344 b 186 332 153 307 129 273 b 117 256 107 237 100 218 b 88 287 87 357 97 427 b 102 463 110 499 121 534 b 132 569 149 601 171 630 b 192 659 223 678 257 685 b 293 691 328 679 354 655 b 382 631 395 595 390 559 b 389 555 391 552 394 551 b 397 551 401 553 401 556 b 410 597 397 639 367 668 b 338 698 296 714 254 709 b 213 704 174 683 147 651 b 121 620 100 586 85 548 b 56 474 41 395 42 316 b 40 235 63 155 108 88 b 131 53 165 27 204 12 b 243 -2 286 -3 325 10 b 346 17 365 29 380 44 b 395 60 407 78 415 99 b 429 139 430 183 420 224 z m 373 112 b 367 79 346 51 315 36 b 283 22 246 22 213 36 b 197 43 182 53 169 65 b 157 77 146 91 137 107 b 122 134 111 163 105 193 b 113 219 125 243 142 264 b 164 293 195 314 230 323 b 264 331 300 322 327 300 b 340 289 350 276 358 261 b 365 246 371 230 374 214 b 380 180 380 146 373 112 z"},"r":{"x_min":0,"x_max":310,"ha":310,"o":"m 365 163 b 361 164 358 163 357 159 l 357 159 b 346 124 329 91 306 62 b 296 48 283 36 268 27 b 263 24 257 24 252 27 b 247 31 244 36 243 42 b 238 77 239 111 247 145 b 250 163 253 181 257 199 l 261 226 l 264 240 l 265 247 l 266 250 b 268 257 267 264 263 270 b 259 276 253 280 246 281 b 240 282 234 280 230 277 b 228 276 226 274 225 272 l 224 272 b 223 270 222 269 221 267 b 219 264 216 261 213 258 b 207 252 201 247 194 242 b 179 233 163 226 146 223 b 127 218 107 220 89 228 b 92 240 96 253 99 265 b 102 276 101 288 96 298 b 94 304 88 308 82 311 b 76 313 69 313 63 310 b 52 305 43 295 41 283 b 39 272 40 260 44 250 b 50 235 59 222 72 213 b 67 195 61 177 56 159 b 55 156 56 153 60 152 b 63 151 66 153 67 156 b 73 173 78 190 83 207 b 85 206 87 205 88 204 b 108 197 129 195 150 198 b 171 200 190 206 209 214 b 210 215 211 215 212 216 b 212 213 211 211 210 209 b 206 190 202 171 200 151 b 198 132 198 112 199 92 b 200 70 205 49 214 30 b 220 18 229 9 240 3 b 253 -2 267 -1 279 7 b 296 18 310 33 321 51 b 342 83 359 119 369 156 b 369 158 369 159 368 161 b 367 162 366 163 365 163 z m 85 268 b 83 257 81 246 78 235 b 71 241 65 248 62 257 b 54 272 56 290 69 296 b 71 297 74 298 77 297 b 80 296 82 294 83 291 b 86 284 87 276 85 268 z"},"2":{"x_min":0,"x_max":337,"ha":337,"o":"m 352 20 l 81 26 b 107 57 131 90 153 124 b 181 165 205 208 228 251 b 276 339 305 436 313 535 b 314 561 312 587 306 612 b 300 639 287 664 267 683 b 246 702 218 711 190 707 b 164 704 139 693 118 677 b 79 644 53 598 45 547 b 37 497 43 447 62 401 b 64 398 67 396 70 397 b 73 399 75 402 74 405 l 74 406 b 56 450 52 498 61 544 b 70 590 95 631 131 660 b 149 673 170 682 192 684 b 213 685 233 678 248 663 b 277 632 280 583 275 538 b 264 446 225 358 185 273 b 143 187 96 104 46 21 l 46 21 b 43 17 43 12 45 8 b 47 4 52 2 56 2 l 352 8 b 356 8 358 11 358 14 b 358 17 356 20 352 20 z"},"{":{"x_min":0,"x_max":436,"ha":436,"o":"m 377 754 b 376 751 378 748 381 747 b 384 746 388 747 389 750 b 395 768 395 787 389 805 b 385 823 378 840 367 855 b 357 870 343 884 327 893 b 310 903 289 906 269 902 b 250 898 232 888 218 875 b 203 862 191 847 182 831 b 165 797 157 759 159 721 b 162 648 185 581 178 521 b 175 492 161 465 138 446 b 113 426 84 412 53 402 l 50 401 b 44 399 41 394 42 388 b 43 383 48 379 54 379 b 78 369 100 354 118 335 b 136 316 150 293 159 269 b 168 244 173 217 175 191 b 175 177 175 164 175 149 b 175 134 175 119 177 104 b 179 73 186 43 196 14 b 206 -16 221 -43 242 -67 b 254 -80 269 -89 286 -94 b 304 -97 322 -92 336 -79 b 357 -57 372 -30 379 0 b 380 4 379 7 375 8 b 372 9 369 8 368 5 l 368 4 b 359 -22 344 -45 323 -63 b 314 -70 302 -73 292 -70 b 281 -65 271 -58 264 -48 b 250 -26 240 -1 235 26 b 229 53 226 80 225 107 b 224 121 224 135 224 149 b 224 163 224 179 222 194 b 220 226 213 257 200 286 b 175 346 122 390 59 403 l 59 379 b 96 383 131 396 162 416 b 195 439 217 475 223 514 b 228 551 227 588 220 624 b 215 658 209 692 205 724 b 201 754 204 786 214 815 b 220 829 228 842 239 853 b 249 864 261 873 275 878 b 306 884 336 871 353 844 b 362 831 370 817 375 801 b 381 787 382 770 378 755 z"},"9":{"x_min":0,"x_max":445,"ha":445,"o":"m 398 464 b 395 505 386 546 373 585 b 366 606 356 625 343 642 b 331 660 315 675 297 687 b 279 700 257 707 234 708 b 212 709 190 704 170 695 b 151 686 132 674 116 660 b 100 645 86 628 75 609 b 53 571 42 528 42 484 b 42 441 51 398 68 359 b 84 317 112 282 148 255 b 167 242 188 233 210 228 b 233 223 258 226 280 236 b 309 250 333 272 349 300 b 346 276 343 252 339 228 b 333 190 323 153 310 116 b 301 81 276 51 244 35 b 178 6 84 59 78 132 l 78 132 b 77 139 71 144 64 143 b 58 142 53 136 54 129 b 62 86 89 48 128 27 b 165 3 211 -3 253 10 b 275 18 294 30 308 47 b 323 63 335 81 345 101 b 363 138 377 178 385 218 b 402 299 406 382 398 464 z m 342 343 b 326 310 300 283 267 268 b 234 259 198 267 173 290 b 145 312 123 342 111 376 b 97 411 91 447 90 485 b 89 521 96 558 109 592 b 116 609 126 624 138 638 b 150 651 165 663 181 671 b 214 689 253 687 283 666 b 345 621 354 537 357 461 b 358 432 357 403 355 374 b 352 363 347 353 342 343 z"}," ":{"x_min":0,"x_max":215,"ha":215,"o":""},"I":{"x_min":0,"x_max":283,"ha":283,"o":"m 270 541 b 266 601 261 660 252 719 b 248 749 243 778 236 808 b 233 825 226 840 216 854 b 206 868 192 879 175 885 b 142 896 104 886 82 858 b 71 845 65 828 65 810 b 65 794 70 777 79 763 b 97 737 124 718 155 710 b 175 704 196 700 218 698 b 221 645 224 592 225 539 b 228 422 228 304 224 187 b 223 159 220 130 214 102 b 209 76 196 53 178 34 b 157 19 129 19 108 35 b 84 50 65 71 54 97 l 53 97 b 52 100 49 102 46 100 b 42 99 41 96 42 93 b 52 63 71 37 97 18 b 111 8 126 2 143 0 b 161 -2 179 2 193 13 b 207 22 218 35 227 50 b 235 64 242 78 247 94 b 255 123 261 153 264 184 b 277 303 279 422 270 541 z m 160 724 b 133 732 110 750 95 773 b 81 795 83 824 99 844 b 116 863 143 870 166 861 b 214 841 210 771 217 715 b 217 714 217 713 217 711 b 198 714 178 718 160 724 z"},"H":{"x_min":0,"x_max":696,"ha":696,"o":"m 710 319 b 695 359 665 392 626 411 b 607 420 588 428 568 433 b 570 576 576 719 579 862 b 580 876 569 887 556 887 b 542 888 531 877 531 864 l 531 864 b 524 725 517 584 516 444 b 513 444 510 445 507 445 b 439 451 371 450 303 443 b 303 541 291 639 267 734 b 261 759 253 784 243 808 b 232 834 214 857 191 873 b 178 881 164 886 149 887 b 134 887 119 882 107 872 b 87 853 74 828 71 800 b 71 797 72 794 76 793 b 79 793 82 794 83 797 l 83 797 b 89 820 102 840 120 855 b 137 866 160 865 176 851 b 211 824 221 774 231 726 b 248 631 255 535 255 439 b 218 435 181 436 144 440 b 125 443 106 450 91 461 b 76 473 65 489 61 508 b 60 511 57 513 54 512 b 50 511 48 508 49 505 b 54 484 66 465 83 451 b 101 439 121 432 142 429 b 179 424 217 424 255 427 b 255 379 254 331 251 283 b 248 234 242 185 232 137 b 227 114 219 91 209 70 b 200 50 183 34 163 26 b 142 21 120 27 104 43 b 87 57 73 77 65 99 l 65 99 l 65 99 b 64 104 60 106 56 107 b 51 108 47 106 44 103 b 42 99 41 95 43 90 b 53 65 69 43 90 25 b 100 16 113 9 126 4 b 140 -1 155 -2 170 2 b 197 11 220 30 234 55 b 247 78 258 103 266 128 b 293 226 305 328 303 430 b 370 437 438 437 505 431 b 509 430 512 429 516 429 b 516 412 516 395 516 378 b 516 296 522 214 535 133 b 538 113 543 92 549 72 b 553 62 556 51 561 41 b 566 30 572 20 581 11 b 586 5 593 1 600 -1 b 607 -4 616 -4 623 -2 b 636 2 647 9 656 19 b 670 35 681 54 689 75 b 705 113 717 153 722 195 b 729 236 725 279 710 319 z m 700 198 b 694 159 683 121 666 85 b 658 68 648 52 635 39 b 631 33 624 30 617 28 b 612 27 609 29 605 34 b 596 49 589 65 586 82 b 582 101 579 120 577 139 b 573 178 570 218 569 258 b 567 298 567 338 567 378 b 567 391 567 404 567 417 b 585 412 602 405 618 396 b 653 379 679 349 692 312 b 704 275 707 236 700 197 z"},"4":{"x_min":0,"x_max":398,"ha":398,"o":"m 412 253 l 332 255 b 331 289 331 323 330 356 b 328 470 324 584 319 698 b 319 699 319 699 319 700 b 320 705 317 711 312 713 b 306 715 300 713 297 708 l 19 254 l 19 253 b 18 251 17 249 17 247 b 17 240 23 235 29 235 l 283 239 b 282 164 282 89 283 15 b 283 1 294 -10 308 -10 b 321 -10 332 1 332 15 b 333 90 333 165 332 240 l 412 241 b 416 241 418 244 418 247 b 418 251 416 253 412 253 z m 51 259 l 294 656 b 290 556 287 456 285 356 b 284 323 283 289 283 255 z"},"~":{"x_min":0,"x_max":555,"ha":555,"o":"m 512 276 b 511 277 509 278 508 278 b 506 278 504 278 503 277 l 503 276 l 477 255 b 468 249 458 244 449 239 b 430 229 410 225 389 227 b 349 232 316 259 276 281 b 254 293 231 301 206 304 b 181 308 155 304 132 293 b 90 271 57 232 42 187 b 42 184 42 182 43 180 b 45 179 47 178 49 178 b 51 179 53 180 54 182 l 54 183 b 68 225 99 258 140 275 b 159 282 180 282 199 275 b 217 265 235 253 252 240 b 271 227 292 216 314 207 b 338 198 364 195 389 196 l 408 199 b 414 201 420 203 426 205 b 437 209 448 215 459 221 b 468 228 478 235 487 243 l 511 268 b 513 270 514 274 512 276 z"},"D":{"x_min":0,"x_max":640,"ha":640,"o":"m 703 166 b 701 166 699 166 698 166 b 697 165 695 164 695 162 l 695 162 b 692 152 687 144 679 137 b 671 131 662 128 652 128 b 630 127 609 131 589 137 l 587 137 b 603 176 615 215 623 256 b 642 345 644 437 628 527 b 616 620 578 707 517 779 b 486 814 448 842 405 862 b 362 881 315 891 267 890 b 169 890 82 824 56 728 b 45 683 48 635 66 591 b 75 569 88 549 104 533 b 121 516 143 505 166 501 b 170 501 173 503 173 506 b 174 508 173 509 172 511 b 171 512 170 513 168 513 b 128 525 96 557 85 598 b 71 638 70 681 82 721 b 104 793 167 845 242 853 b 250 769 256 685 261 601 b 266 515 268 428 266 342 b 265 300 262 257 257 215 b 253 174 242 133 225 96 b 206 61 176 25 140 25 b 120 25 102 33 89 46 b 74 61 62 78 53 97 b 52 100 49 101 46 100 b 43 99 41 96 42 92 b 48 70 60 50 75 33 b 91 14 114 2 139 0 b 164 0 189 9 207 26 b 225 41 241 59 253 79 b 265 99 274 120 281 143 b 287 164 293 186 296 208 b 304 252 309 296 312 340 b 317 428 317 516 313 603 b 308 687 302 769 291 852 b 366 844 436 808 485 750 b 539 684 572 604 582 520 b 593 435 593 348 581 263 b 575 224 566 185 553 147 b 522 157 489 163 456 163 b 432 162 408 152 391 134 b 372 116 363 90 369 64 b 376 39 395 19 420 10 b 444 2 471 4 494 16 b 515 28 533 45 547 65 b 560 84 572 104 581 124 l 585 123 b 607 117 630 114 653 115 b 665 115 677 120 687 128 b 696 136 703 146 706 158 b 707 161 706 165 703 166 z m 481 39 b 465 29 445 26 427 32 b 409 38 395 52 390 70 b 385 88 391 108 405 121 b 419 136 438 144 458 145 b 488 146 519 142 548 133 b 536 95 513 63 481 39 z"},"^":{"x_min":0,"x_max":282,"ha":282,"o":"m 239 591 l 155 696 b 154 697 153 698 152 699 b 149 702 144 703 139 702 b 134 702 130 700 127 696 l 43 591 b 42 589 42 586 43 584 b 45 582 48 582 50 584 l 141 657 l 232 584 b 234 582 237 582 239 584 b 241 586 241 589 239 591 z"},"0":{"x_min":0,"x_max":397,"ha":397,"o":"m 383 461 b 378 498 369 535 355 570 b 341 604 321 636 295 663 b 283 676 268 688 252 697 b 236 706 217 710 199 710 b 162 705 129 687 105 659 b 80 633 58 604 41 572 b 23 540 10 505 1 469 b -7 432 -12 395 -12 358 b -12 320 -9 283 -2 247 b 5 211 16 176 29 141 b 42 107 61 75 86 47 b 99 34 113 22 130 14 b 145 5 163 0 182 0 b 200 -1 218 3 234 12 b 251 20 265 31 278 44 b 303 71 323 102 338 136 b 367 204 383 276 386 350 b 388 387 387 424 383 461 z m 333 249 b 328 215 320 182 309 150 b 298 118 282 89 261 64 b 242 40 213 25 182 24 b 151 26 123 42 105 67 b 85 93 70 123 61 155 b 42 221 33 289 33 357 b 33 391 36 425 41 459 b 47 492 57 524 70 555 b 84 585 102 613 124 639 b 142 664 169 680 200 685 b 214 686 229 682 241 674 b 254 665 265 654 274 641 b 292 613 306 584 317 552 b 328 521 335 488 337 455 b 341 421 343 386 342 352 b 342 318 339 283 333 249 z"},"F":{"x_min":0,"x_max":478,"ha":478,"o":"m 755 930 b 753 931 752 931 750 931 b 749 931 747 930 746 928 l 746 927 b 735 912 720 900 702 892 b 684 884 666 879 646 877 b 607 873 568 876 530 884 b 490 892 451 900 410 906 b 370 912 329 917 288 919 b 245 922 203 919 161 910 b 139 905 118 897 99 885 b 80 873 64 855 54 834 b 45 813 41 791 42 769 b 41 747 46 725 55 705 b 76 666 113 639 156 631 b 159 630 163 632 163 636 b 164 639 162 642 159 643 l 158 643 b 122 653 92 678 76 713 b 61 748 62 787 79 821 b 99 852 132 871 168 873 b 201 877 233 878 265 875 b 272 795 278 714 281 634 b 284 565 285 449 284 380 b 260 382 236 384 213 387 l 213 387 b 210 387 207 385 206 382 b 205 379 207 376 210 375 b 234 367 259 362 284 359 b 283 350 284 341 283 332 b 282 290 278 248 272 207 b 267 167 256 128 238 91 b 219 58 189 24 153 24 b 134 26 116 34 103 47 b 89 61 77 78 69 97 l 69 97 b 68 100 64 101 61 100 b 58 99 56 96 57 93 b 64 71 75 51 90 34 b 105 16 127 4 151 0 b 176 -1 201 7 220 23 b 237 38 253 55 265 74 b 288 113 304 156 311 200 b 319 243 325 286 328 329 b 329 338 330 346 330 355 b 341 355 353 355 364 355 b 391 356 417 361 442 368 b 468 376 491 389 511 408 b 513 410 514 413 512 416 b 510 418 506 419 503 417 l 503 417 b 461 392 412 379 363 379 b 353 379 342 379 332 379 b 336 448 335 566 333 636 b 330 714 324 792 315 870 b 345 866 374 862 404 858 b 444 853 484 849 525 846 b 546 845 567 845 588 846 b 609 847 630 850 651 855 b 694 862 732 886 757 922 b 758 923 758 925 758 926 b 757 928 756 929 755 930 z"},"`":{"x_min":0,"x_max":181,"ha":181,"o":"m 139 563 l 82 669 b 81 671 80 672 79 673 b 71 682 57 682 49 674 b 40 666 40 653 48 644 l 130 557 b 132 555 135 555 137 556 b 139 558 140 561 139 563 z"},"k":{"x_min":0,"x_max":327,"ha":327,"o":"m 399 166 b 397 166 396 166 394 165 b 393 164 392 163 392 161 b 385 122 368 86 343 55 b 331 41 315 31 297 27 b 289 25 281 25 272 27 b 265 30 258 34 252 40 b 230 68 218 102 219 138 b 219 147 219 156 220 165 b 221 171 223 177 226 183 b 236 196 249 207 264 214 b 283 225 301 238 317 252 b 328 262 334 277 332 292 b 331 301 326 309 319 314 b 312 318 304 320 296 319 b 273 314 253 301 238 283 b 224 268 211 251 199 234 b 159 174 122 112 91 47 b 90 138 89 230 88 321 b 125 363 156 410 181 460 b 210 517 228 579 236 642 b 239 674 241 706 239 738 b 238 771 232 803 222 834 b 216 851 206 866 192 878 b 183 885 172 888 161 886 b 151 884 141 878 134 871 b 112 845 96 815 88 782 b 84 767 80 750 77 735 b 74 719 71 703 69 687 b 65 656 62 624 59 593 b 54 530 50 467 48 404 b 43 277 39 151 42 25 b 43 12 54 2 67 2 b 76 2 84 7 88 15 b 88 15 88 15 88 15 l 88 15 b 113 66 141 115 171 163 b 170 154 170 145 171 136 b 172 113 178 90 189 70 b 199 49 214 30 233 16 b 243 9 255 4 267 2 b 279 0 291 1 303 4 b 324 11 343 25 357 43 b 381 78 397 117 404 159 b 404 162 402 165 399 166 z m 253 268 b 265 281 280 290 298 294 b 305 294 305 292 306 289 b 305 283 302 278 297 275 b 280 265 263 257 245 250 b 240 247 235 245 229 242 b 236 251 245 260 253 268 z m 94 590 b 95 652 103 714 115 774 b 121 803 134 830 152 853 b 161 863 169 865 178 859 b 188 850 196 838 200 825 b 211 797 217 767 218 737 b 229 593 182 450 88 341 b 88 361 88 382 88 402 b 89 465 91 528 94 590 z"},"u":{"x_min":0,"x_max":362,"ha":362,"o":"m 412 165 b 409 166 406 164 405 161 b 395 122 379 85 356 52 b 347 37 332 27 315 25 b 309 25 303 29 299 34 b 297 37 295 41 294 44 l 290 57 b 285 96 284 135 285 174 l 290 293 l 290 294 b 291 307 281 319 268 320 b 254 321 243 311 241 298 b 236 257 234 215 236 173 b 236 155 238 136 241 118 b 239 110 238 103 235 95 b 229 76 219 58 205 43 b 192 29 174 21 155 22 b 137 24 121 34 111 49 b 101 65 95 84 94 103 b 92 123 92 144 92 165 b 92 208 94 251 94 294 l 94 295 b 95 308 85 320 72 320 b 58 321 47 311 46 298 b 41 253 40 208 43 164 b 44 141 47 118 53 96 b 58 71 69 48 86 29 b 103 9 128 -2 154 -3 b 180 -3 204 8 221 28 b 233 41 243 57 250 74 b 252 65 255 56 259 47 l 266 31 b 269 25 273 20 278 15 b 288 5 301 -1 316 0 b 328 1 340 7 350 15 b 358 23 366 31 371 41 b 392 77 407 117 416 157 b 417 161 415 164 412 165 z"},"]":{"x_min":0,"x_max":286,"ha":286,"o":"m 241 412 b 239 493 238 574 234 654 b 231 735 227 816 220 897 l 220 898 b 220 904 215 909 208 909 l 48 903 b 45 903 42 900 42 896 b 42 893 45 890 48 890 l 196 885 b 193 808 192 731 192 654 b 191 573 192 492 193 411 b 194 331 196 250 200 169 l 205 48 b 208 11 210 -25 213 -61 l 48 -67 b 45 -67 42 -70 42 -73 b 42 -76 45 -79 48 -79 l 226 -85 b 232 -85 238 -80 238 -74 l 238 -73 b 240 -32 241 8 242 49 l 243 170 b 244 251 243 331 241 412 z"},"U":{"x_min":0,"x_max":599,"ha":599,"o":"m 664 166 b 661 167 658 165 656 162 l 656 162 b 644 120 623 82 595 49 b 582 34 562 23 551 30 b 539 42 531 59 531 77 b 527 118 528 161 528 204 l 529 337 b 530 425 530 514 528 602 b 528 609 528 616 527 624 b 531 705 532 786 533 866 l 533 867 b 533 880 522 891 509 892 b 496 892 484 882 484 868 b 477 710 474 554 460 398 b 454 321 441 245 421 171 b 411 136 396 102 375 72 b 356 41 323 22 287 21 b 250 24 217 43 196 72 b 173 101 156 134 147 169 b 124 243 111 318 106 395 b 94 550 92 707 100 863 l 100 863 b 101 877 90 888 77 889 b 63 890 52 879 51 866 b 38 707 39 548 53 390 b 60 309 76 230 101 153 b 116 113 140 77 170 48 b 201 17 243 -1 286 -3 b 330 -2 372 17 401 49 b 431 79 454 115 468 156 b 472 169 476 183 479 196 b 477 153 482 110 494 68 b 498 56 503 45 510 34 b 517 22 527 11 541 6 b 555 1 571 3 583 11 b 594 17 603 26 610 36 b 636 73 656 114 668 158 b 669 161 667 165 664 166 z"},"o":{"x_min":0,"x_max":283,"ha":283,"o":"m 337 166 b 335 166 333 166 332 165 b 331 164 330 163 329 161 b 325 139 314 119 296 104 b 278 90 256 82 234 82 b 233 82 232 82 231 82 b 242 103 250 126 254 150 b 259 176 258 203 251 229 b 244 256 229 280 207 298 b 183 313 154 317 128 309 b 101 300 79 281 69 255 b 62 240 58 225 57 209 b 44 187 35 163 31 138 b 26 112 28 84 37 59 b 40 53 43 47 46 41 b 50 35 54 29 60 24 b 70 15 82 7 96 4 b 123 -4 152 2 175 18 b 195 31 212 49 224 70 b 227 70 231 69 234 70 b 260 70 284 79 304 95 b 323 111 337 134 342 158 b 342 160 342 162 341 163 b 340 164 338 165 337 166 z m 158 40 b 143 26 122 22 103 27 b 93 30 84 36 78 43 b 71 50 66 59 64 68 b 58 89 58 110 65 130 b 67 135 69 140 71 144 b 78 134 87 124 97 116 b 122 95 151 81 183 74 b 177 62 169 50 158 40 z m 207 157 b 203 133 197 109 188 86 b 158 93 130 107 107 127 b 95 136 87 148 80 161 b 85 169 91 176 98 183 l 98 183 b 100 185 101 187 102 188 b 105 194 106 201 105 207 b 103 213 99 219 94 222 b 89 225 84 226 79 225 b 81 232 84 239 87 246 b 96 265 113 279 133 286 b 152 293 173 289 188 275 b 200 260 208 240 209 220 b 210 199 210 178 207 157 z"},"N":{"x_min":0,"x_max":678,"ha":678,"o":"m 732 166 b 729 167 725 165 724 162 b 712 128 696 94 676 64 b 666 49 654 38 639 29 b 626 23 611 29 605 41 b 596 55 591 71 590 87 b 588 105 587 123 587 141 b 587 178 588 215 589 252 b 596 403 589 553 571 702 b 565 741 556 778 543 814 b 535 833 524 851 510 866 b 495 882 473 890 451 889 b 429 887 409 878 393 864 b 379 850 366 835 356 817 b 337 784 321 749 310 713 b 286 641 268 568 254 494 b 249 464 244 434 239 404 b 238 448 236 491 234 535 b 232 621 223 706 207 791 b 204 802 201 813 197 823 b 193 834 187 845 180 854 b 173 865 164 873 153 880 b 141 887 128 889 115 887 b 90 882 69 867 58 845 b 45 826 40 802 42 779 b 42 776 45 773 49 774 b 52 774 55 777 54 780 l 54 780 b 55 800 62 819 74 835 b 83 850 99 861 117 864 b 134 864 150 854 158 839 b 163 831 167 823 170 814 b 173 804 175 794 177 785 b 188 701 193 618 193 534 b 194 449 191 364 190 280 l 185 26 l 185 24 b 184 10 195 -1 209 -1 b 222 -1 233 10 233 23 l 233 24 b 236 78 238 132 239 186 b 240 214 241 241 243 269 b 256 417 285 564 329 706 b 341 741 356 774 375 806 b 394 836 420 864 452 865 b 467 866 482 860 493 849 b 504 836 513 821 518 805 b 530 770 537 735 540 698 b 545 625 547 550 544 476 b 543 402 541 327 543 252 b 544 215 545 177 550 139 b 552 120 555 100 559 82 b 562 61 571 41 584 24 b 591 15 602 8 613 5 b 625 2 638 3 649 9 b 666 21 680 36 691 53 b 710 86 725 121 736 158 b 737 161 735 165 732 166 z"},"+":{"x_min":0,"x_max":462,"ha":462,"o":"m 402 291 l 230 291 l 230 463 b 230 474 222 482 211 482 b 201 482 193 474 193 463 l 193 291 l 21 291 b 11 291 3 283 3 273 b 3 263 11 255 21 255 l 193 255 l 193 83 b 193 73 201 65 212 65 b 222 65 230 73 230 83 l 230 255 l 402 255 b 412 255 420 263 420 273 b 420 283 412 292 402 292 z"},"G":{"x_min":0,"x_max":559,"ha":559,"o":"m 564 846 l 564 846 b 564 860 553 870 539 870 b 526 870 515 858 516 845 l 516 844 b 516 832 516 820 516 808 b 500 824 481 837 461 847 b 418 867 371 874 325 869 b 277 864 233 846 195 816 b 159 786 129 750 107 708 b 63 626 41 534 42 441 b 40 347 64 255 113 175 b 139 135 174 102 216 80 b 260 56 313 56 356 80 b 396 106 428 141 450 183 b 471 224 487 267 498 311 b 503 327 506 344 510 360 b 509 344 509 327 508 311 b 505 252 500 193 494 134 b 488 76 478 18 462 -39 b 448 -94 417 -143 374 -180 b 330 -217 271 -230 216 -214 b 189 -206 165 -190 146 -169 b 128 -147 115 -121 108 -93 l 108 -92 b 107 -89 104 -87 101 -88 b 98 -89 96 -92 96 -95 b 102 -126 115 -154 134 -179 b 154 -204 180 -222 210 -233 b 271 -252 339 -241 390 -201 b 440 -163 477 -110 496 -49 b 514 9 528 68 536 128 b 553 247 563 367 566 487 b 570 607 569 726 564 846 z m 471 318 b 461 276 446 235 426 196 b 408 158 379 125 344 102 b 308 81 264 81 229 102 b 193 124 164 156 144 193 b 125 231 111 271 103 313 b 95 355 91 398 90 441 b 90 484 94 527 102 569 b 110 611 123 652 141 690 b 159 729 184 764 215 792 b 247 820 286 839 328 845 b 370 852 414 846 453 830 b 473 822 491 811 506 796 b 510 792 513 789 516 785 b 516 767 516 750 516 732 b 517 593 501 454 471 318 z"},"q":{"x_min":0,"x_max":385,"ha":385,"o":"m 396 60 b 409 76 419 94 427 113 b 435 132 441 151 445 171 b 445 174 443 177 440 178 b 437 179 434 177 433 174 l 433 174 b 424 136 407 101 383 72 b 371 58 356 47 339 40 b 327 36 314 35 302 36 b 307 125 314 215 316 304 b 316 317 306 329 293 330 b 279 330 268 320 267 306 b 267 302 267 298 266 293 b 254 303 241 311 227 317 b 197 330 163 330 133 317 b 126 313 119 309 112 305 b 106 300 99 295 94 290 b 82 278 72 265 64 251 b 48 223 41 191 41 159 b 41 127 50 95 67 67 b 85 39 114 19 148 14 b 179 11 211 20 236 40 b 245 47 253 54 260 61 b 260 39 260 16 260 -6 b 260 -58 260 -111 261 -163 b 262 -215 263 -267 267 -320 b 268 -347 273 -375 284 -400 b 290 -416 304 -428 321 -431 b 338 -432 354 -423 364 -408 b 379 -385 389 -359 394 -332 b 400 -306 403 -279 405 -253 b 410 -199 404 -145 386 -94 b 376 -69 364 -45 348 -23 b 338 -10 327 2 315 13 b 326 14 337 16 347 20 b 366 29 383 43 396 60 z m 260 95 b 250 81 238 68 224 58 b 203 42 177 36 152 40 b 129 47 110 64 101 86 b 92 109 88 134 89 159 b 91 209 105 261 148 290 b 169 304 195 306 219 296 b 236 289 252 279 265 266 b 262 209 261 152 260 95 z m 331 -34 b 345 -55 356 -78 364 -102 b 372 -126 377 -150 380 -175 b 382 -200 382 -226 380 -251 b 379 -276 376 -302 371 -327 b 367 -351 358 -374 345 -394 b 341 -402 332 -408 323 -408 b 317 -408 309 -400 304 -390 b 296 -367 291 -343 292 -318 b 288 -215 294 -111 299 -7 b 299 -3 299 1 300 5 b 312 -7 322 -20 331 -34 z"},"d":{"x_min":0,"x_max":441,"ha":441,"o":"m 501 169 b 498 170 495 168 494 164 b 486 130 472 96 452 66 b 443 53 430 41 415 34 b 402 28 386 30 374 39 b 350 57 340 92 332 124 b 323 158 316 193 312 228 b 308 259 305 292 303 324 b 348 374 384 431 411 492 b 442 561 457 634 457 709 b 458 747 454 784 445 821 b 440 840 431 859 418 875 b 411 884 399 890 387 891 b 374 891 362 886 354 877 b 340 863 329 846 322 827 b 314 810 309 792 304 773 b 294 738 287 701 281 664 b 270 592 263 518 259 444 b 257 397 256 350 258 303 b 251 308 242 311 234 314 b 200 325 164 323 132 308 b 100 292 75 265 59 233 b 43 201 38 165 43 130 b 45 112 51 95 58 79 b 66 63 76 48 89 35 b 95 29 103 23 111 18 b 115 16 119 14 123 12 l 136 8 b 153 3 172 3 189 8 b 206 13 221 21 234 33 b 246 45 256 58 264 72 b 273 86 280 102 286 117 b 286 115 287 113 288 111 b 295 92 304 74 315 58 b 326 40 342 25 361 15 b 381 4 405 4 425 14 b 442 25 457 39 466 57 b 485 90 498 125 506 162 b 506 165 504 168 501 169 z m 251 81 b 236 56 212 37 184 30 b 171 28 157 29 145 35 b 133 39 122 47 115 58 b 100 81 92 108 90 135 b 88 162 91 189 101 215 b 110 240 126 263 148 279 b 171 295 200 300 228 294 b 239 291 250 287 259 280 b 260 260 262 241 264 222 b 267 193 272 165 279 138 b 272 118 263 98 251 81 z m 310 660 b 314 696 320 732 328 767 b 334 801 348 833 370 860 b 374 864 380 867 386 867 b 392 867 398 864 401 858 b 411 846 419 831 423 815 b 432 780 437 745 436 709 b 437 575 389 444 302 342 b 297 448 300 555 310 660 z"},"1":{"x_min":0,"x_max":214,"ha":214,"o":"m 182 359 b 179 471 176 584 170 697 l 170 698 b 170 703 167 707 163 708 b 159 710 154 709 150 706 l 29 592 b 27 590 26 586 29 583 b 31 581 35 580 37 583 l 145 671 b 140 567 137 463 135 359 b 133 302 133 246 133 190 b 133 133 133 77 134 21 b 134 7 145 -4 158 -4 b 172 -4 183 7 183 21 b 184 77 184 133 184 190 b 183 246 183 302 182 359 z"},"5":{"x_min":0,"x_max":375,"ha":375,"o":"m 370 702 l 67 710 l 67 710 b 60 710 55 705 55 698 l 55 698 b 46 639 42 578 43 518 b 43 458 47 398 55 338 l 55 334 b 56 331 57 329 59 327 b 63 323 70 324 74 328 b 104 351 139 365 176 370 b 211 375 246 364 271 338 b 316 283 331 210 310 142 b 302 108 283 78 256 56 b 228 34 192 24 156 29 b 120 32 87 53 68 84 b 60 100 55 118 55 137 b 56 155 60 174 67 191 b 68 195 66 198 63 199 b 60 200 57 199 55 196 b 38 158 38 115 54 77 b 74 39 110 13 153 6 b 195 -1 238 7 275 28 b 312 51 341 86 355 128 b 369 169 371 213 360 255 b 355 276 347 296 336 314 b 325 333 310 349 294 363 b 277 377 257 387 235 392 b 215 396 193 397 172 393 b 141 387 110 376 82 361 b 88 413 91 465 91 518 b 92 574 88 631 81 686 l 370 690 b 374 690 376 693 376 696 b 376 699 374 702 370 702 z"}}}
